solid VertX-v07
facet normal 0.0 -1.0 0.0
outer loop
vertex 607.957497051473 81.9063597481782 0.0
vertex 602.475135141678 81.9063597481782 2.56814834742187
vertex 587.857497051472 81.9063597481782 0.0
endloop
endfacet
facet normal 0.0 -1.0 0.0
outer loop
vertex 602.475135141678 81.9063597481782 2.56814834742187
vertex 607.957497051473 81.9063597481782 0.0
vertex 602.957497051473 81.9063597481782 2.76794919243112
endloop
endfacet
facet normal 0.0 -1.0 0.0
outer loop
vertex 602.957497051473 81.9063597481782 2.76794919243112
vertex 607.957497051473 81.9063597481782 0.0
vertex 603.371710613846 81.9063597481782 3.08578643762691
endloop
endfacet
facet normal 0.0 -1.0 0.0
outer loop
vertex 603.371710613846 81.9063597481782 3.08578643762691
vertex 607.957497051473 81.9063597481782 0.0
vertex 607.957497051473 81.9063597481782 9.0
endloop
endfacet
facet normal 0.0 -1.0 0.0
outer loop
vertex 587.857497051472 81.9063597481782 0.0
vertex 602.475135141678 81.9063597481782 2.56814834742187
vertex 601.957497051473 81.9063597481782 2.5
endloop
endfacet
facet normal 0.0 -1.0 0.0
outer loop
vertex 603.371710613846 81.9063597481782 3.08578643762691
vertex 607.957497051473 81.9063597481782 9.0
vertex 603.689547859042 81.9063597481782 3.5
endloop
endfacet
facet normal 0.0 -1.0 0.0
outer loop
vertex 603.689547859042 81.9063597481782 3.5
vertex 607.957497051473 81.9063597481782 9.0
vertex 603.889348704051 81.9063597481782 3.98236190979496
endloop
endfacet
facet normal 0.0 -1.0 0.0
outer loop
vertex 603.889348704051 81.9063597481782 3.98236190979496
vertex 607.957497051473 81.9063597481782 9.0
vertex 603.957497051473 81.9063597481782 4.5
endloop
endfacet
facet normal 0.0 -1.0 0.0
outer loop
vertex 603.957497051473 81.9063597481782 4.5
vertex 607.957497051473 81.9063597481782 9.0
vertex 603.889348704051 81.9063597481782 5.01763809020504
endloop
endfacet
facet normal 0.0 -1.0 0.0
outer loop
vertex 603.889348704051 81.9063597481782 5.01763809020504
vertex 607.957497051473 81.9063597481782 9.0
vertex 603.689547859042 81.9063597481782 5.49999999999999
endloop
endfacet
facet normal 0.0 -1.0 0.0
outer loop
vertex 603.689547859042 81.9063597481782 5.49999999999999
vertex 607.957497051473 81.9063597481782 9.0
vertex 603.371710613846 81.9063597481782 5.91421356237309
endloop
endfacet
facet normal 0.0 -1.0 0.0
outer loop
vertex 603.371710613846 81.9063597481782 5.91421356237309
vertex 607.957497051473 81.9063597481782 9.0
vertex 602.957497051473 81.9063597481782 6.23205080756887
endloop
endfacet
facet normal 0.0 -1.0 0.0
outer loop
vertex 602.957497051473 81.9063597481782 6.23205080756887
vertex 607.957497051473 81.9063597481782 9.0
vertex 602.475135141678 81.9063597481782 6.43185165257813
endloop
endfacet
facet normal 0.0 -1.0 0.0
outer loop
vertex 602.475135141678 81.9063597481782 6.43185165257813
vertex 607.957497051473 81.9063597481782 9.0
vertex 601.957497051473 81.9063597481782 6.49999999999999
endloop
endfacet
facet normal 0.0 -1.0 0.0
outer loop
vertex 587.857497051472 81.9063597481782 0.0
vertex 600.957497051473 81.9063597481782 2.76794919243112
vertex 587.857497051472 81.9063597481782 9.0
endloop
endfacet
facet normal 0.0 -1.0 0.0
outer loop
vertex 600.957497051473 81.9063597481782 2.76794919243112
vertex 587.857497051472 81.9063597481782 0.0
vertex 601.439858961268 81.9063597481782 2.56814834742187
endloop
endfacet
facet normal 0.0 -1.0 0.0
outer loop
vertex 601.439858961268 81.9063597481782 2.56814834742187
vertex 587.857497051472 81.9063597481782 0.0
vertex 601.957497051473 81.9063597481782 2.5
endloop
endfacet
facet normal 0.0 -1.0 0.0
outer loop
vertex 587.857497051472 81.9063597481782 9.0
vertex 600.957497051473 81.9063597481782 2.76794919243112
vertex 600.543283489099 81.9063597481782 3.08578643762691
endloop
endfacet
facet normal 0.0 -1.0 0.0
outer loop
vertex 587.857497051472 81.9063597481782 9.0
vertex 600.543283489099 81.9063597481782 3.08578643762691
vertex 600.225446243904 81.9063597481782 3.5
endloop
endfacet
facet normal 0.0 -1.0 0.0
outer loop
vertex 587.857497051472 81.9063597481782 9.0
vertex 600.225446243904 81.9063597481782 3.5
vertex 600.025645398894 81.9063597481782 3.98236190979496
endloop
endfacet
facet normal 0.0 -1.0 0.0
outer loop
vertex 587.857497051472 81.9063597481782 9.0
vertex 600.025645398894 81.9063597481782 3.98236190979496
vertex 599.957497051473 81.9063597481782 4.5
endloop
endfacet
facet normal 0.0 -1.0 0.0
outer loop
vertex 587.857497051472 81.9063597481782 9.0
vertex 599.957497051473 81.9063597481782 4.5
vertex 600.025645398894 81.9063597481782 5.01763809020504
endloop
endfacet
facet normal 0.0 -1.0 0.0
outer loop
vertex 587.857497051472 81.9063597481782 9.0
vertex 600.025645398894 81.9063597481782 5.01763809020504
vertex 600.225446243904 81.9063597481782 5.49999999999999
endloop
endfacet
facet normal 0.0 -1.0 0.0
outer loop
vertex 587.857497051472 81.9063597481782 9.0
vertex 600.225446243904 81.9063597481782 5.49999999999999
vertex 600.543283489099 81.9063597481782 5.91421356237309
endloop
endfacet
facet normal 0.0 -1.0 0.0
outer loop
vertex 587.857497051472 81.9063597481782 9.0
vertex 600.543283489099 81.9063597481782 5.91421356237309
vertex 600.957497051473 81.9063597481782 6.23205080756887
endloop
endfacet
facet normal 0.0 -1.0 0.0
outer loop
vertex 587.857497051472 81.9063597481782 9.0
vertex 600.957497051473 81.9063597481782 6.23205080756887
vertex 601.439858961268 81.9063597481782 6.43185165257813
endloop
endfacet
facet normal 0.0 -1.0 0.0
outer loop
vertex 587.857497051472 81.9063597481782 9.0
vertex 601.439858961268 81.9063597481782 6.43185165257813
vertex 601.957497051473 81.9063597481782 6.49999999999999
endloop
endfacet
facet normal 0.0 -1.0 0.0
outer loop
vertex 587.857497051472 81.9063597481782 9.0
vertex 601.957497051473 81.9063597481782 6.49999999999999
vertex 607.957497051473 81.9063597481782 9.0
endloop
endfacet
facet normal 0.258819045102504 0.965925826289073 0.0
outer loop
vertex 586.796338966552 84.046063860393 9.0
vertex 587.857497051472 83.9063597481782 0.0
vertex 586.796338966552 84.046063860393 0.0
endloop
endfacet
facet normal 0.130526192220052 0.99144486137381 0.0
outer loop
vertex 587.857497051472 83.9063597481782 0.0
vertex 586.796338966552 84.046063860393 9.0
vertex 587.857497051472 83.9063597481782 9.0
endloop
endfacet
facet normal 0.499999999999985 0.866025403784447 0.0
outer loop
vertex 585.807497051472 84.455655592662 9.0
vertex 586.796338966552 84.046063860393 0.0
vertex 585.807497051472 84.455655592662 0.0
endloop
endfacet
facet normal 0.258819045102504 0.965925826289073 0.0
outer loop
vertex 586.796338966552 84.046063860393 0.0
vertex 585.807497051472 84.455655592662 9.0
vertex 586.796338966552 84.046063860393 9.0
endloop
endfacet
facet normal 0.707106781186565 0.70710678118653 0.0
outer loop
vertex 584.958359248607 85.1072219453134 9.0
vertex 585.807497051472 84.455655592662 0.0
vertex 584.958359248607 85.1072219453134 0.0
endloop
endfacet
facet normal 0.499999999999985 0.866025403784447 0.0
outer loop
vertex 585.807497051472 84.455655592662 0.0
vertex 584.958359248607 85.1072219453134 9.0
vertex 585.807497051472 84.455655592662 9.0
endloop
endfacet
facet normal 0.866025403784444 0.499999999999991 0.0
outer loop
vertex 584.306792895956 85.9563597481782 0.0
vertex 584.958359248607 85.1072219453134 9.0
vertex 584.958359248607 85.1072219453134 0.0
endloop
endfacet
facet normal 0.707106781186565 0.70710678118653 0.0
outer loop
vertex 584.958359248607 85.1072219453134 9.0
vertex 584.306792895956 85.9563597481782 0.0
vertex 584.306792895956 85.9563597481782 9.0
endloop
endfacet
facet normal 0.965925826289072 0.258819045102508 0.0
outer loop
vertex 583.897201163687 86.9452016632579 0.0
vertex 584.306792895956 85.9563597481782 9.0
vertex 584.306792895956 85.9563597481782 0.0
endloop
endfacet
facet normal 0.866025403784444 0.499999999999991 0.0
outer loop
vertex 584.306792895956 85.9563597481782 9.0
vertex 583.897201163687 86.9452016632579 0.0
vertex 583.897201163687 86.9452016632579 9.0
endloop
endfacet
facet normal 1.0 0.0 0.0
outer loop
vertex 583.757497051472 88.0063597481782 0.0
vertex 583.897201163687 86.9452016632579 9.0
vertex 583.897201163687 86.9452016632579 0.0
endloop
endfacet
facet normal 0.965925826289072 0.258819045102508 0.0
outer loop
vertex 583.897201163687 86.9452016632579 9.0
vertex 583.757497051472 88.0063597481782 0.0
vertex 583.757497051472 88.0063597481782 9.0
endloop
endfacet
facet normal 0.965925826289072 -0.258819045102508 0.0
outer loop
vertex 583.897201163687 89.0675178330985 0.0
vertex 583.757497051472 88.0063597481782 9.0
vertex 583.757497051472 88.0063597481782 0.0
endloop
endfacet
facet normal 1.0 0.0 0.0
outer loop
vertex 583.757497051472 88.0063597481782 9.0
vertex 583.897201163687 89.0675178330985 0.0
vertex 583.897201163687 89.0675178330985 9.0
endloop
endfacet
facet normal 0.866025403784444 -0.499999999999991 0.0
outer loop
vertex 584.306792895956 90.0563597481782 0.0
vertex 583.897201163687 89.0675178330985 9.0
vertex 583.897201163687 89.0675178330985 0.0
endloop
endfacet
facet normal 0.965925826289072 -0.258819045102508 0.0
outer loop
vertex 583.897201163687 89.0675178330985 9.0
vertex 584.306792895956 90.0563597481782 0.0
vertex 584.306792895956 90.0563597481782 9.0
endloop
endfacet
facet normal 0.707106781186565 -0.70710678118653 0.0
outer loop
vertex 584.958359248607 90.905497551043 0.0
vertex 584.306792895956 90.0563597481782 9.0
vertex 584.306792895956 90.0563597481782 0.0
endloop
endfacet
facet normal 0.866025403784444 -0.499999999999991 0.0
outer loop
vertex 584.306792895956 90.0563597481782 9.0
vertex 584.958359248607 90.905497551043 0.0
vertex 584.958359248607 90.905497551043 9.0
endloop
endfacet
facet normal 0.499999999999985 -0.866025403784447 0.0
outer loop
vertex 585.807497051472 91.5570639036944 9.0
vertex 584.958359248607 90.905497551043 0.0
vertex 585.807497051472 91.5570639036944 0.0
endloop
endfacet
facet normal 0.707106781186565 -0.70710678118653 0.0
outer loop
vertex 584.958359248607 90.905497551043 0.0
vertex 585.807497051472 91.5570639036944 9.0
vertex 584.958359248607 90.905497551043 9.0
endloop
endfacet
facet normal 0.258819045102504 -0.965925826289073 0.0
outer loop
vertex 586.796338966552 91.9666556359634 9.0
vertex 585.807497051472 91.5570639036944 0.0
vertex 586.796338966552 91.9666556359634 0.0
endloop
endfacet
facet normal 0.499999999999985 -0.866025403784447 0.0
outer loop
vertex 585.807497051472 91.5570639036944 0.0
vertex 586.796338966552 91.9666556359634 9.0
vertex 585.807497051472 91.5570639036944 9.0
endloop
endfacet
facet normal 0.130526192220052 -0.99144486137381 0.0
outer loop
vertex 587.857497051472 92.1063597481782 9.0
vertex 586.796338966552 91.9666556359634 0.0
vertex 587.857497051472 92.1063597481782 0.0
endloop
endfacet
facet normal 0.258819045102504 -0.965925826289073 0.0
outer loop
vertex 586.796338966552 91.9666556359634 0.0
vertex 587.857497051472 92.1063597481782 9.0
vertex 586.796338966552 91.9666556359634 9.0
endloop
endfacet
facet normal 0.0 1.0 0.0
outer loop
vertex 587.857497051472 94.1063597481782 0.0
vertex 601.439858961268 94.1063597481781 2.56814834742182
vertex 607.957497051473 94.1063597481782 0.0
endloop
endfacet
facet normal 0.0 1.0 0.0
outer loop
vertex 601.439858961268 94.1063597481781 2.56814834742182
vertex 587.857497051472 94.1063597481782 0.0
vertex 600.957497051473 94.1063597481781 2.76794919243108
endloop
endfacet
facet normal 0.0 1.0 0.0
outer loop
vertex 600.957497051473 94.1063597481781 2.76794919243108
vertex 587.857497051472 94.1063597481782 0.0
vertex 587.857497051472 94.1063597481782 9.0
endloop
endfacet
facet normal 0.0 1.0 0.0
outer loop
vertex 607.957497051473 94.1063597481782 0.0
vertex 601.439858961268 94.1063597481781 2.56814834742182
vertex 601.957497051473 94.1063597481781 2.49999999999996
endloop
endfacet
facet normal 0.0 1.0 0.0
outer loop
vertex 600.957497051473 94.1063597481781 2.76794919243108
vertex 587.857497051472 94.1063597481782 9.0
vertex 600.543283489099 94.1063597481781 3.08578643762686
endloop
endfacet
facet normal 0.0 1.0 0.0
outer loop
vertex 600.543283489099 94.1063597481781 3.08578643762686
vertex 587.857497051472 94.1063597481782 9.0
vertex 600.225446243904 94.1063597481781 3.49999999999995
endloop
endfacet
facet normal 0.0 1.0 0.0
outer loop
vertex 600.225446243904 94.1063597481781 3.49999999999995
vertex 587.857497051472 94.1063597481782 9.0
vertex 600.025645398894 94.1063597481781 3.98236190979491
endloop
endfacet
facet normal 0.0 1.0 0.0
outer loop
vertex 600.025645398894 94.1063597481781 3.98236190979491
vertex 587.857497051472 94.1063597481782 9.0
vertex 599.957497051473 94.1063597481781 4.49999999999995
endloop
endfacet
facet normal 0.0 1.0 0.0
outer loop
vertex 599.957497051473 94.1063597481781 4.49999999999995
vertex 587.857497051472 94.1063597481782 9.0
vertex 600.025645398894 94.1063597481781 5.01763809020499
endloop
endfacet
facet normal 0.0 1.0 0.0
outer loop
vertex 600.025645398894 94.1063597481781 5.01763809020499
vertex 587.857497051472 94.1063597481782 9.0
vertex 600.225446243904 94.1063597481781 5.49999999999995
endloop
endfacet
facet normal 0.0 1.0 0.0
outer loop
vertex 600.225446243904 94.1063597481781 5.49999999999995
vertex 587.857497051472 94.1063597481782 9.0
vertex 600.543283489099 94.1063597481781 5.91421356237305
endloop
endfacet
facet normal 0.0 1.0 0.0
outer loop
vertex 600.543283489099 94.1063597481781 5.91421356237305
vertex 587.857497051472 94.1063597481782 9.0
vertex 600.957497051473 94.1063597481781 6.23205080756883
endloop
endfacet
facet normal 0.0 1.0 0.0
outer loop
vertex 600.957497051473 94.1063597481781 6.23205080756883
vertex 587.857497051472 94.1063597481782 9.0
vertex 601.439858961268 94.1063597481781 6.43185165257808
endloop
endfacet
facet normal 0.0 1.0 0.0
outer loop
vertex 601.439858961268 94.1063597481781 6.43185165257808
vertex 587.857497051472 94.1063597481782 9.0
vertex 601.957497051473 94.1063597481781 6.49999999999995
endloop
endfacet
facet normal 0.0 1.0 0.0
outer loop
vertex 607.957497051473 94.1063597481782 0.0
vertex 603.371710613846 94.1063597481781 3.08578643762686
vertex 607.957497051473 94.1063597481782 9.0
endloop
endfacet
facet normal 0.0 1.0 0.0
outer loop
vertex 603.371710613846 94.1063597481781 3.08578643762686
vertex 607.957497051473 94.1063597481782 0.0
vertex 602.957497051473 94.1063597481781 2.76794919243108
endloop
endfacet
facet normal 0.0 1.0 0.0
outer loop
vertex 602.957497051473 94.1063597481781 2.76794919243108
vertex 607.957497051473 94.1063597481782 0.0
vertex 602.475135141678 94.1063597481781 2.56814834742182
endloop
endfacet
facet normal 0.0 1.0 0.0
outer loop
vertex 602.475135141678 94.1063597481781 2.56814834742182
vertex 607.957497051473 94.1063597481782 0.0
vertex 601.957497051473 94.1063597481781 2.49999999999996
endloop
endfacet
facet normal 0.0 1.0 0.0
outer loop
vertex 607.957497051473 94.1063597481782 9.0
vertex 603.371710613846 94.1063597481781 3.08578643762686
vertex 603.689547859042 94.1063597481781 3.49999999999996
endloop
endfacet
facet normal 0.0 1.0 0.0
outer loop
vertex 607.957497051473 94.1063597481782 9.0
vertex 603.689547859042 94.1063597481781 3.49999999999996
vertex 603.889348704051 94.1063597481781 3.98236190979491
endloop
endfacet
facet normal 0.0 1.0 0.0
outer loop
vertex 607.957497051473 94.1063597481782 9.0
vertex 603.889348704051 94.1063597481781 3.98236190979491
vertex 603.957497051473 94.1063597481781 4.49999999999995
endloop
endfacet
facet normal 0.0 1.0 0.0
outer loop
vertex 607.957497051473 94.1063597481782 9.0
vertex 603.957497051473 94.1063597481781 4.49999999999995
vertex 603.889348704051 94.1063597481781 5.017638090205
endloop
endfacet
facet normal 0.0 1.0 0.0
outer loop
vertex 607.957497051473 94.1063597481782 9.0
vertex 603.889348704051 94.1063597481781 5.017638090205
vertex 603.689547859042 94.1063597481781 5.49999999999995
endloop
endfacet
facet normal 0.0 1.0 0.0
outer loop
vertex 607.957497051473 94.1063597481782 9.0
vertex 603.689547859042 94.1063597481781 5.49999999999995
vertex 603.371710613846 94.1063597481781 5.91421356237305
endloop
endfacet
facet normal 0.0 1.0 0.0
outer loop
vertex 607.957497051473 94.1063597481782 9.0
vertex 603.371710613846 94.1063597481781 5.91421356237305
vertex 602.957497051473 94.1063597481781 6.23205080756883
endloop
endfacet
facet normal 0.0 1.0 0.0
outer loop
vertex 607.957497051473 94.1063597481782 9.0
vertex 602.957497051473 94.1063597481781 6.23205080756883
vertex 602.475135141678 94.1063597481781 6.43185165257808
endloop
endfacet
facet normal 0.0 1.0 0.0
outer loop
vertex 607.957497051473 94.1063597481782 9.0
vertex 602.475135141678 94.1063597481781 6.43185165257808
vertex 601.957497051473 94.1063597481781 6.49999999999995
endloop
endfacet
facet normal 0.0 1.0 0.0
outer loop
vertex 607.957497051473 94.1063597481782 9.0
vertex 601.957497051473 94.1063597481781 6.49999999999995
vertex 587.857497051472 94.1063597481782 9.0
endloop
endfacet
facet normal -0.258819045102521 0.965925826289068 0.0
outer loop
vertex 586.278700876347 93.8985072885415 9.0
vertex 587.857497051472 94.1063597481782 0.0
vertex 586.278700876347 93.8985072885415 0.0
endloop
endfacet
facet normal -0.130526192220052 0.99144486137381 0.0
outer loop
vertex 587.857497051472 94.1063597481782 0.0
vertex 586.278700876347 93.8985072885415 9.0
vertex 587.857497051472 94.1063597481782 9.0
endloop
endfacet
facet normal -0.500000000000009 0.866025403784433 0.0
outer loop
vertex 584.807497051472 93.2891147112633 9.0
vertex 586.278700876347 93.8985072885415 0.0
vertex 584.807497051472 93.2891147112633 0.0
endloop
endfacet
facet normal -0.258819045102521 0.965925826289068 0.0
outer loop
vertex 586.278700876347 93.8985072885415 0.0
vertex 584.807497051472 93.2891147112633 9.0
vertex 586.278700876347 93.8985072885415 9.0
endloop
endfacet
facet normal -0.321439465303171 0.946930129495103 0.0
outer loop
vertex 583.544145686234 92.3197111134161 9.0
vertex 584.807497051472 93.2891147112633 0.0
vertex 583.544145686234 92.3197111134161 0.0
endloop
endfacet
facet normal -0.500000000000009 0.866025403784433 0.0
outer loop
vertex 584.807497051472 93.2891147112633 0.0
vertex 583.544145686234 92.3197111134161 9.0
vertex 584.807497051472 93.2891147112633 9.0
endloop
endfacet
facet normal -4.59335242500889e-005 5.17809488044721e-005 -0.999999997604422
outer loop
vertex 567.757381810676 92.3197111134161 0.00600000000000065
vertex 572.342787719309 89.4205733105513 1.40998324127395e-015
vertex 567.757381810676 83.6930083829402 2.8199664825479e-015
endloop
endfacet
facet normal -4.59335242500889e-005 5.17809488044721e-005 -0.999999997604422
outer loop
vertex 572.342787719309 89.4205733105513 1.40998324127395e-015
vertex 567.757381810676 92.3197111134161 0.00600000000000065
vertex 572.757001281682 89.7384105557471 1.40998324127395e-015
endloop
endfacet
facet normal -4.59335242500889e-005 5.17809488044721e-005 -0.999999997604422
outer loop
vertex 572.757001281682 89.7384105557471 1.40998324127395e-015
vertex 567.757381810676 92.3197111134161 0.00600000000000065
vertex 573.239363191477 89.9382114007563 1.40998324127395e-015
endloop
endfacet
facet normal -4.59335242500889e-005 5.17809488044721e-005 -0.999999997604422
outer loop
vertex 573.239363191477 89.9382114007563 1.40998324127395e-015
vertex 567.757381810676 92.3197111134161 0.00600000000000065
vertex 583.544145686234 92.3197111134161 0.0
endloop
endfacet
facet normal -4.59335242500889e-005 5.17809488044721e-005 -0.999999997604422
outer loop
vertex 567.757381810676 83.6930083829402 2.8199664825479e-015
vertex 572.342787719309 89.4205733105513 1.40998324127395e-015
vertex 572.024950474113 89.0063597481782 1.40998324127395e-015
endloop
endfacet
facet normal -4.59335242500889e-005 5.17809488044721e-005 -0.999999997604422
outer loop
vertex 567.757381810676 83.6930083829402 2.8199664825479e-015
vertex 572.024950474113 89.0063597481782 1.40998324127395e-015
vertex 571.825149629104 88.5239978383832 1.40998324127395e-015
endloop
endfacet
facet normal -4.59335242500889e-005 5.17809488044721e-005 -0.999999997604422
outer loop
vertex 567.757381810676 83.6930083829402 2.8199664825479e-015
vertex 571.825149629104 88.5239978383832 1.40998324127395e-015
vertex 571.757001281682 88.0063597481782 1.40998324127395e-015
endloop
endfacet
facet normal -4.59335242500889e-005 5.17809488044721e-005 -0.999999997604422
outer loop
vertex 573.239363191477 89.9382114007563 1.40998324127395e-015
vertex 583.544145686234 92.3197111134161 0.0
vertex 573.757001281682 90.0063597481782 1.40998324127395e-015
endloop
endfacet
facet normal -4.59335242500889e-005 5.17809488044721e-005 -0.999999997604422
outer loop
vertex 573.757001281682 90.0063597481782 1.40998324127395e-015
vertex 583.544145686234 92.3197111134161 0.0
vertex 574.274639371887 89.9382114007563 1.40998324127395e-015
endloop
endfacet
facet normal -4.59335242500889e-005 5.17809488044721e-005 -0.999999997604422
outer loop
vertex 574.274639371887 89.9382114007563 1.40998324127395e-015
vertex 583.544145686234 92.3197111134161 0.0
vertex 574.757001281682 89.7384105557471 1.40998324127395e-015
endloop
endfacet
facet normal -4.59335242500889e-005 5.17809488044721e-005 -0.999999997604422
outer loop
vertex 574.757001281682 89.7384105557471 1.40998324127395e-015
vertex 583.544145686234 92.3197111134161 0.0
vertex 575.171214844055 89.4205733105513 1.40998324127395e-015
endloop
endfacet
facet normal -4.59335242500889e-005 5.17809488044721e-005 -0.999999997604422
outer loop
vertex 575.171214844055 89.4205733105513 1.40998324127395e-015
vertex 583.544145686234 92.3197111134161 0.0
vertex 575.489052089251 89.0063597481782 1.40998324127395e-015
endloop
endfacet
facet normal -4.59335242500889e-005 5.17809488044721e-005 -0.999999997604422
outer loop
vertex 575.489052089251 89.0063597481782 1.40998324127395e-015
vertex 583.544145686234 92.3197111134161 0.0
vertex 575.68885293426 88.5239978383832 1.40998324127395e-015
endloop
endfacet
facet normal -4.59335242500889e-005 5.17809488044721e-005 -0.999999997604422
outer loop
vertex 575.68885293426 88.5239978383832 1.40998324127395e-015
vertex 583.544145686234 92.3197111134161 0.0
vertex 575.757001281682 88.0063597481782 1.40998324127395e-015
endloop
endfacet
facet normal -4.59335242500889e-005 5.17809488044721e-005 -0.999999997604422
outer loop
vertex 567.757381810676 83.6930083829402 2.8199664825479e-015
vertex 573.239363191477 86.0745080956001 1.40998324127395e-015
vertex 583.544145686234 83.6930083829402 0.0
endloop
endfacet
facet normal -4.59335242500889e-005 5.17809488044721e-005 -0.999999997604422
outer loop
vertex 573.239363191477 86.0745080956001 1.40998324127395e-015
vertex 567.757381810676 83.6930083829402 2.8199664825479e-015
vertex 572.757001281682 86.2743089406093 1.40998324127395e-015
endloop
endfacet
facet normal -4.59335242500889e-005 5.17809488044721e-005 -0.999999997604422
outer loop
vertex 572.757001281682 86.2743089406093 1.40998324127395e-015
vertex 567.757381810676 83.6930083829402 2.8199664825479e-015
vertex 572.342787719309 86.5921461858051 1.40998324127395e-015
endloop
endfacet
facet normal -4.59335242500889e-005 5.17809488044721e-005 -0.999999997604422
outer loop
vertex 572.342787719309 86.5921461858051 1.40998324127395e-015
vertex 567.757381810676 83.6930083829402 2.8199664825479e-015
vertex 572.024950474113 87.0063597481782 1.40998324127395e-015
endloop
endfacet
facet normal -4.59335242500889e-005 5.17809488044721e-005 -0.999999997604422
outer loop
vertex 572.024950474113 87.0063597481782 1.40998324127395e-015
vertex 567.757381810676 83.6930083829402 2.8199664825479e-015
vertex 571.825149629104 87.4887216579731 1.40998324127395e-015
endloop
endfacet
facet normal -4.59335242500889e-005 5.17809488044721e-005 -0.999999997604422
outer loop
vertex 571.825149629104 87.4887216579731 1.40998324127395e-015
vertex 567.757381810676 83.6930083829402 2.8199664825479e-015
vertex 571.757001281682 88.0063597481782 1.40998324127395e-015
endloop
endfacet
facet normal -4.59335242500889e-005 5.17809488044721e-005 -0.999999997604422
outer loop
vertex 583.544145686234 83.6930083829402 0.0
vertex 573.239363191477 86.0745080956001 1.40998324127395e-015
vertex 573.757001281682 86.0063597481782 1.40998324127395e-015
endloop
endfacet
facet normal -4.59335242500889e-005 5.17809488044721e-005 -0.999999997604422
outer loop
vertex 583.544145686234 83.6930083829402 0.0
vertex 573.757001281682 86.0063597481782 1.40998324127395e-015
vertex 574.274639371887 86.0745080956001 1.40998324127395e-015
endloop
endfacet
facet normal -4.59335242500889e-005 5.17809488044721e-005 -0.999999997604422
outer loop
vertex 583.544145686234 83.6930083829402 0.0
vertex 574.274639371887 86.0745080956001 1.40998324127395e-015
vertex 574.757001281682 86.2743089406093 1.40998324127395e-015
endloop
endfacet
facet normal -4.59335242500889e-005 5.17809488044721e-005 -0.999999997604422
outer loop
vertex 583.544145686234 83.6930083829402 0.0
vertex 574.757001281682 86.2743089406093 1.40998324127395e-015
vertex 575.171214844055 86.5921461858051 1.40998324127395e-015
endloop
endfacet
facet normal -4.59335242500889e-005 5.17809488044721e-005 -0.999999997604422
outer loop
vertex 583.544145686234 83.6930083829402 0.0
vertex 575.171214844055 86.5921461858051 1.40998324127395e-015
vertex 575.489052089251 87.0063597481782 1.40998324127395e-015
endloop
endfacet
facet normal -4.59335242500889e-005 5.17809488044721e-005 -0.999999997604422
outer loop
vertex 583.544145686234 83.6930083829402 0.0
vertex 575.489052089251 87.0063597481782 1.40998324127395e-015
vertex 575.68885293426 87.4887216579731 1.40998324127395e-015
endloop
endfacet
facet normal -4.59335242500889e-005 5.17809488044721e-005 -0.999999997604422
outer loop
vertex 583.544145686234 83.6930083829402 0.0
vertex 575.68885293426 87.4887216579731 1.40998324127395e-015
vertex 575.757001281682 88.0063597481782 1.40998324127395e-015
endloop
endfacet
facet normal -4.59335242500889e-005 5.17809488044721e-005 -0.999999997604422
outer loop
vertex 583.544145686234 83.6930083829402 0.0
vertex 575.757001281682 88.0063597481782 1.40998324127395e-015
vertex 583.544145686234 92.3197111134161 0.0
endloop
endfacet
facet normal -4.59335242500889e-005 5.17809488044721e-005 -0.999999997604422
outer loop
vertex 583.544145686234 83.6930083829402 0.0
vertex 583.544145686234 92.3197111134161 0.0
vertex 583.757497051472 88.0063597481782 0.0
endloop
endfacet
facet normal -4.59335242500889e-005 5.17809488044721e-005 -0.999999997604422
outer loop
vertex 583.757497051472 88.0063597481782 0.0
vertex 583.544145686234 92.3197111134161 0.0
vertex 583.897201163687 89.0675178330985 0.0
endloop
endfacet
facet normal -4.59335242500889e-005 5.17809488044721e-005 -0.999999997604422
outer loop
vertex 583.897201163687 89.0675178330985 0.0
vertex 583.544145686234 92.3197111134161 0.0
vertex 584.807497051472 93.2891147112633 0.0
endloop
endfacet
facet normal -4.59335242500889e-005 5.17809488044721e-005 -0.999999997604422
outer loop
vertex 583.897201163687 89.0675178330985 0.0
vertex 584.807497051472 93.2891147112633 0.0
vertex 584.306792895956 90.0563597481782 0.0
endloop
endfacet
facet normal -4.59335242500889e-005 5.17809488044721e-005 -0.999999997604422
outer loop
vertex 584.306792895956 90.0563597481782 0.0
vertex 584.807497051472 93.2891147112633 0.0
vertex 584.958359248607 90.905497551043 0.0
endloop
endfacet
facet normal -4.59335242500889e-005 5.17809488044721e-005 -0.999999997604422
outer loop
vertex 584.958359248607 90.905497551043 0.0
vertex 584.807497051472 93.2891147112633 0.0
vertex 586.278700876347 93.8985072885415 0.0
endloop
endfacet
facet normal -4.59335242500889e-005 5.17809488044721e-005 -0.999999997604422
outer loop
vertex 584.958359248607 90.905497551043 0.0
vertex 586.278700876347 93.8985072885415 0.0
vertex 585.807497051472 91.5570639036944 0.0
endloop
endfacet
facet normal -4.59335242500889e-005 5.17809488044721e-005 -0.999999997604422
outer loop
vertex 585.807497051472 91.5570639036944 0.0
vertex 586.278700876347 93.8985072885415 0.0
vertex 586.796338966552 91.9666556359634 0.0
endloop
endfacet
facet normal -4.59335242500889e-005 5.17809488044721e-005 -0.999999997604422
outer loop
vertex 586.796338966552 91.9666556359634 0.0
vertex 586.278700876347 93.8985072885415 0.0
vertex 587.857497051472 94.1063597481782 0.0
endloop
endfacet
facet normal -4.59335242500889e-005 5.17809488044721e-005 -0.999999997604422
outer loop
vertex 586.796338966552 91.9666556359634 0.0
vertex 587.857497051472 94.1063597481782 0.0
vertex 587.857497051472 92.1063597481782 0.0
endloop
endfacet
facet normal -4.59335242500889e-005 5.17809488044721e-005 -0.999999997604422
outer loop
vertex 587.857497051472 92.1063597481782 0.0
vertex 587.857497051472 94.1063597481782 0.0
vertex 607.957497051473 94.1063597481782 0.0
endloop
endfacet
facet normal -4.59335242500889e-005 5.17809488044721e-005 -0.999999997604422
outer loop
vertex 587.857497051472 92.1063597481782 0.0
vertex 607.957497051473 94.1063597481782 0.0
vertex 607.957497051473 92.1063597481782 0.0
endloop
endfacet
facet normal -4.59335242500889e-005 5.17809488044721e-005 -0.999999997604422
outer loop
vertex 583.544145686234 83.6930083829402 0.0
vertex 583.897201163687 86.9452016632579 0.0
vertex 584.807497051472 82.7236047850931 0.0
endloop
endfacet
facet normal -4.59335242500889e-005 5.17809488044721e-005 -0.999999997604422
outer loop
vertex 583.897201163687 86.9452016632579 0.0
vertex 583.544145686234 83.6930083829402 0.0
vertex 583.757497051472 88.0063597481782 0.0
endloop
endfacet
facet normal -4.59335242500889e-005 5.17809488044721e-005 -0.999999997604422
outer loop
vertex 584.807497051472 82.7236047850931 0.0
vertex 583.897201163687 86.9452016632579 0.0
vertex 584.306792895956 85.9563597481782 0.0
endloop
endfacet
facet normal -4.59335242500889e-005 5.17809488044721e-005 -0.999999997604422
outer loop
vertex 584.807497051472 82.7236047850931 0.0
vertex 584.306792895956 85.9563597481782 0.0
vertex 584.958359248607 85.1072219453134 0.0
endloop
endfacet
facet normal -4.59335242500889e-005 5.17809488044721e-005 -0.999999997604422
outer loop
vertex 584.807497051472 82.7236047850931 0.0
vertex 584.958359248607 85.1072219453134 0.0
vertex 586.278700876347 82.1142122078149 0.0
endloop
endfacet
facet normal -4.59335242500889e-005 5.17809488044721e-005 -0.999999997604422
outer loop
vertex 586.278700876347 82.1142122078149 0.0
vertex 584.958359248607 85.1072219453134 0.0
vertex 585.807497051472 84.455655592662 0.0
endloop
endfacet
facet normal -4.59335242500889e-005 5.17809488044721e-005 -0.999999997604422
outer loop
vertex 586.278700876347 82.1142122078149 0.0
vertex 585.807497051472 84.455655592662 0.0
vertex 586.796338966552 84.046063860393 0.0
endloop
endfacet
facet normal -4.59335242500889e-005 5.17809488044721e-005 -0.999999997604422
outer loop
vertex 586.278700876347 82.1142122078149 0.0
vertex 586.796338966552 84.046063860393 0.0
vertex 587.857497051472 81.9063597481782 0.0
endloop
endfacet
facet normal -4.59335242500889e-005 5.17809488044721e-005 -0.999999997604422
outer loop
vertex 587.857497051472 81.9063597481782 0.0
vertex 586.796338966552 84.046063860393 0.0
vertex 587.857497051472 83.9063597481782 0.0
endloop
endfacet
facet normal -4.59335242500889e-005 5.17809488044721e-005 -0.999999997604422
outer loop
vertex 587.857497051472 81.9063597481782 0.0
vertex 587.857497051472 83.9063597481782 0.0
vertex 607.957497051473 83.9063597481782 0.0
endloop
endfacet
facet normal -4.59335242500889e-005 5.17809488044721e-005 -0.999999997604422
outer loop
vertex 587.857497051472 81.9063597481782 0.0
vertex 607.957497051473 83.9063597481782 0.0
vertex 607.957497051473 81.9063597481782 0.0
endloop
endfacet
facet normal 1.19752444084981e-015 -6.94619914736171e-016 1.0
outer loop
vertex 567.757381810676 83.6930083829402 9.0
vertex 572.342787719309 86.5921461858051 9.0
vertex 567.757381810676 92.3197111134161 9.00000000000004
endloop
endfacet
facet normal 1.19752444084981e-015 -6.94619914736171e-016 1.0
outer loop
vertex 572.342787719309 86.5921461858051 9.0
vertex 567.757381810676 83.6930083829402 9.0
vertex 572.757001281682 86.2743089406093 9.0
endloop
endfacet
facet normal 1.19752444084981e-015 -6.94619914736171e-016 1.0
outer loop
vertex 572.757001281682 86.2743089406093 9.0
vertex 567.757381810676 83.6930083829402 9.0
vertex 573.239363191477 86.0745080956001 9.0
endloop
endfacet
facet normal 1.19752444084981e-015 -6.94619914736171e-016 1.0
outer loop
vertex 573.239363191477 86.0745080956001 9.0
vertex 567.757381810676 83.6930083829402 9.0
vertex 583.544145686234 83.6930083829402 8.99999999999999
endloop
endfacet
facet normal 1.19752444084981e-015 -6.94619914736171e-016 1.0
outer loop
vertex 567.757381810676 92.3197111134161 9.00000000000004
vertex 572.342787719309 86.5921461858051 9.0
vertex 572.024950474113 87.0063597481782 9.0
endloop
endfacet
facet normal 1.19752444084981e-015 -6.94619914736171e-016 1.0
outer loop
vertex 567.757381810676 92.3197111134161 9.00000000000004
vertex 572.024950474113 87.0063597481782 9.0
vertex 571.825149629104 87.4887216579731 9.0
endloop
endfacet
facet normal 1.19752444084981e-015 -6.94619914736171e-016 1.0
outer loop
vertex 567.757381810676 92.3197111134161 9.00000000000004
vertex 571.825149629104 87.4887216579731 9.0
vertex 571.757001281682 88.0063597481782 9.0
endloop
endfacet
facet normal 1.19752444084981e-015 -6.94619914736171e-016 1.0
outer loop
vertex 573.239363191477 86.0745080956001 9.0
vertex 583.544145686234 83.6930083829402 8.99999999999999
vertex 573.757001281682 86.0063597481782 9.0
endloop
endfacet
facet normal 1.19752444084981e-015 -6.94619914736171e-016 1.0
outer loop
vertex 573.757001281682 86.0063597481782 9.0
vertex 583.544145686234 83.6930083829402 8.99999999999999
vertex 574.274639371887 86.0745080956001 9.0
endloop
endfacet
facet normal 1.19752444084981e-015 -6.94619914736171e-016 1.0
outer loop
vertex 574.274639371887 86.0745080956001 9.0
vertex 583.544145686234 83.6930083829402 8.99999999999999
vertex 574.757001281682 86.2743089406093 9.0
endloop
endfacet
facet normal 1.19752444084981e-015 -6.94619914736171e-016 1.0
outer loop
vertex 574.757001281682 86.2743089406093 9.0
vertex 583.544145686234 83.6930083829402 8.99999999999999
vertex 575.171214844055 86.5921461858051 9.0
endloop
endfacet
facet normal 1.19752444084981e-015 -6.94619914736171e-016 1.0
outer loop
vertex 575.171214844055 86.5921461858051 9.0
vertex 583.544145686234 83.6930083829402 8.99999999999999
vertex 575.489052089251 87.0063597481782 9.0
endloop
endfacet
facet normal 1.19752444084981e-015 -6.94619914736171e-016 1.0
outer loop
vertex 575.489052089251 87.0063597481782 9.0
vertex 583.544145686234 83.6930083829402 8.99999999999999
vertex 575.68885293426 87.4887216579731 9.0
endloop
endfacet
facet normal 1.19752444084981e-015 -6.94619914736171e-016 1.0
outer loop
vertex 575.68885293426 87.4887216579731 9.0
vertex 583.544145686234 83.6930083829402 8.99999999999999
vertex 575.757001281682 88.0063597481782 9.0
endloop
endfacet
facet normal 1.19752444084981e-015 -6.94619914736171e-016 1.0
outer loop
vertex 567.757381810676 92.3197111134161 9.00000000000004
vertex 573.239363191477 89.9382114007563 9.0
vertex 583.544145686234 92.3197111134161 9.0
endloop
endfacet
facet normal 1.19752444084981e-015 -6.94619914736171e-016 1.0
outer loop
vertex 573.239363191477 89.9382114007563 9.0
vertex 567.757381810676 92.3197111134161 9.00000000000004
vertex 572.757001281682 89.7384105557471 9.0
endloop
endfacet
facet normal 1.19752444084981e-015 -6.94619914736171e-016 1.0
outer loop
vertex 572.757001281682 89.7384105557471 9.0
vertex 567.757381810676 92.3197111134161 9.00000000000004
vertex 572.342787719309 89.4205733105513 9.0
endloop
endfacet
facet normal 1.19752444084981e-015 -6.94619914736171e-016 1.0
outer loop
vertex 572.342787719309 89.4205733105513 9.0
vertex 567.757381810676 92.3197111134161 9.00000000000004
vertex 572.024950474113 89.0063597481782 9.0
endloop
endfacet
facet normal 1.19752444084981e-015 -6.94619914736171e-016 1.0
outer loop
vertex 572.024950474113 89.0063597481782 9.0
vertex 567.757381810676 92.3197111134161 9.00000000000004
vertex 571.825149629104 88.5239978383832 9.0
endloop
endfacet
facet normal 1.19752444084981e-015 -6.94619914736171e-016 1.0
outer loop
vertex 571.825149629104 88.5239978383832 9.0
vertex 567.757381810676 92.3197111134161 9.00000000000004
vertex 571.757001281682 88.0063597481782 9.0
endloop
endfacet
facet normal 1.19752444084981e-015 -6.94619914736171e-016 1.0
outer loop
vertex 583.544145686234 92.3197111134161 9.0
vertex 573.239363191477 89.9382114007563 9.0
vertex 573.757001281682 90.0063597481782 9.0
endloop
endfacet
facet normal 1.19752444084981e-015 -6.94619914736171e-016 1.0
outer loop
vertex 583.544145686234 92.3197111134161 9.0
vertex 573.757001281682 90.0063597481782 9.0
vertex 574.274639371887 89.9382114007563 9.0
endloop
endfacet
facet normal 1.19752444084981e-015 -6.94619914736171e-016 1.0
outer loop
vertex 583.544145686234 92.3197111134161 9.0
vertex 574.274639371887 89.9382114007563 9.0
vertex 574.757001281682 89.7384105557471 9.0
endloop
endfacet
facet normal 1.19752444084981e-015 -6.94619914736171e-016 1.0
outer loop
vertex 583.544145686234 92.3197111134161 9.0
vertex 574.757001281682 89.7384105557471 9.0
vertex 575.171214844055 89.4205733105513 9.0
endloop
endfacet
facet normal 1.19752444084981e-015 -6.94619914736171e-016 1.0
outer loop
vertex 583.544145686234 92.3197111134161 9.0
vertex 575.171214844055 89.4205733105513 9.0
vertex 575.489052089251 89.0063597481782 9.0
endloop
endfacet
facet normal 1.19752444084981e-015 -6.94619914736171e-016 1.0
outer loop
vertex 583.544145686234 92.3197111134161 9.0
vertex 575.489052089251 89.0063597481782 9.0
vertex 575.68885293426 88.5239978383832 9.0
endloop
endfacet
facet normal 1.19752444084981e-015 -6.94619914736171e-016 1.0
outer loop
vertex 583.544145686234 92.3197111134161 9.0
vertex 575.68885293426 88.5239978383832 9.0
vertex 575.757001281682 88.0063597481782 9.0
endloop
endfacet
facet normal 1.19752444084981e-015 -6.94619914736171e-016 1.0
outer loop
vertex 583.544145686234 92.3197111134161 9.0
vertex 575.757001281682 88.0063597481782 9.0
vertex 583.544145686234 83.6930083829402 8.99999999999999
endloop
endfacet
facet normal 1.19752444084981e-015 -6.94619914736171e-016 1.0
outer loop
vertex 583.544145686234 92.3197111134161 9.0
vertex 583.544145686234 83.6930083829402 8.99999999999999
vertex 583.757497051472 88.0063597481782 9.0
endloop
endfacet
facet normal 1.19752444084981e-015 -6.94619914736171e-016 1.0
outer loop
vertex 583.757497051472 88.0063597481782 9.0
vertex 583.544145686234 83.6930083829402 8.99999999999999
vertex 583.897201163687 86.9452016632579 9.0
endloop
endfacet
facet normal 1.19752444084981e-015 -6.94619914736171e-016 1.0
outer loop
vertex 583.897201163687 86.9452016632579 9.0
vertex 583.544145686234 83.6930083829402 8.99999999999999
vertex 584.807497051472 82.7236047850931 9.0
endloop
endfacet
facet normal 1.19752444084981e-015 -6.94619914736171e-016 1.0
outer loop
vertex 583.897201163687 86.9452016632579 9.0
vertex 584.807497051472 82.7236047850931 9.0
vertex 584.306792895956 85.9563597481782 9.0
endloop
endfacet
facet normal 1.19752444084981e-015 -6.94619914736171e-016 1.0
outer loop
vertex 584.306792895956 85.9563597481782 9.0
vertex 584.807497051472 82.7236047850931 9.0
vertex 584.958359248607 85.1072219453134 9.0
endloop
endfacet
facet normal 1.19752444084981e-015 -6.94619914736171e-016 1.0
outer loop
vertex 584.958359248607 85.1072219453134 9.0
vertex 584.807497051472 82.7236047850931 9.0
vertex 586.278700876347 82.1142122078149 9.0
endloop
endfacet
facet normal 1.19752444084981e-015 -6.94619914736171e-016 1.0
outer loop
vertex 584.958359248607 85.1072219453134 9.0
vertex 586.278700876347 82.1142122078149 9.0
vertex 585.807497051472 84.455655592662 9.0
endloop
endfacet
facet normal 1.19752444084981e-015 -6.94619914736171e-016 1.0
outer loop
vertex 585.807497051472 84.455655592662 9.0
vertex 586.278700876347 82.1142122078149 9.0
vertex 586.796338966552 84.046063860393 9.0
endloop
endfacet
facet normal 1.19752444084981e-015 -6.94619914736171e-016 1.0
outer loop
vertex 586.796338966552 84.046063860393 9.0
vertex 586.278700876347 82.1142122078149 9.0
vertex 587.857497051472 81.9063597481782 9.0
endloop
endfacet
facet normal 1.19752444084981e-015 -6.94619914736171e-016 1.0
outer loop
vertex 586.796338966552 84.046063860393 9.0
vertex 587.857497051472 81.9063597481782 9.0
vertex 587.857497051472 83.9063597481782 9.0
endloop
endfacet
facet normal 1.19752444084981e-015 -6.94619914736171e-016 1.0
outer loop
vertex 587.857497051472 83.9063597481782 9.0
vertex 587.857497051472 81.9063597481782 9.0
vertex 607.957497051473 81.9063597481782 9.0
endloop
endfacet
facet normal 1.19752444084981e-015 -6.94619914736171e-016 1.0
outer loop
vertex 587.857497051472 83.9063597481782 9.0
vertex 607.957497051473 81.9063597481782 9.0
vertex 588.918655136393 84.046063860393 8.99999999999994
endloop
endfacet
facet normal 1.19752444084981e-015 -6.94619914736171e-016 1.0
outer loop
vertex 588.918655136393 84.046063860393 8.99999999999994
vertex 607.957497051473 81.9063597481782 9.0
vertex 589.907497051472 84.455655592662 8.99999999999994
endloop
endfacet
facet normal 1.19752444084981e-015 -6.94619914736171e-016 1.0
outer loop
vertex 589.907497051472 84.455655592662 8.99999999999994
vertex 607.957497051473 81.9063597481782 9.0
vertex 607.957497051473 84.455655592662 8.99999999999994
endloop
endfacet
facet normal 1.19752444084981e-015 -6.94619914736171e-016 1.0
outer loop
vertex 583.544145686234 92.3197111134161 9.0
vertex 583.897201163687 89.0675178330985 9.0
vertex 584.807497051472 93.2891147112633 9.0
endloop
endfacet
facet normal 1.19752444084981e-015 -6.94619914736171e-016 1.0
outer loop
vertex 583.897201163687 89.0675178330985 9.0
vertex 583.544145686234 92.3197111134161 9.0
vertex 583.757497051472 88.0063597481782 9.0
endloop
endfacet
facet normal 1.19752444084981e-015 -6.94619914736171e-016 1.0
outer loop
vertex 584.807497051472 93.2891147112633 9.0
vertex 583.897201163687 89.0675178330985 9.0
vertex 584.306792895956 90.0563597481782 9.0
endloop
endfacet
facet normal 1.19752444084981e-015 -6.94619914736171e-016 1.0
outer loop
vertex 584.807497051472 93.2891147112633 9.0
vertex 584.306792895956 90.0563597481782 9.0
vertex 584.958359248607 90.905497551043 9.0
endloop
endfacet
facet normal 1.19752444084981e-015 -6.94619914736171e-016 1.0
outer loop
vertex 584.807497051472 93.2891147112633 9.0
vertex 584.958359248607 90.905497551043 9.0
vertex 586.278700876347 93.8985072885415 9.0
endloop
endfacet
facet normal 1.19752444084981e-015 -6.94619914736171e-016 1.0
outer loop
vertex 586.278700876347 93.8985072885415 9.0
vertex 584.958359248607 90.905497551043 9.0
vertex 585.807497051472 91.5570639036944 9.0
endloop
endfacet
facet normal 1.19752444084981e-015 -6.94619914736171e-016 1.0
outer loop
vertex 586.278700876347 93.8985072885415 9.0
vertex 585.807497051472 91.5570639036944 9.0
vertex 586.796338966552 91.9666556359634 9.0
endloop
endfacet
facet normal 1.19752444084981e-015 -6.94619914736171e-016 1.0
outer loop
vertex 586.278700876347 93.8985072885415 9.0
vertex 586.796338966552 91.9666556359634 9.0
vertex 587.857497051472 94.1063597481782 9.0
endloop
endfacet
facet normal 1.19752444084981e-015 -6.94619914736171e-016 1.0
outer loop
vertex 587.857497051472 94.1063597481782 9.0
vertex 586.796338966552 91.9666556359634 9.0
vertex 587.857497051472 92.1063597481782 9.0
endloop
endfacet
facet normal 1.19752444084981e-015 -6.94619914736171e-016 1.0
outer loop
vertex 587.857497051472 94.1063597481782 9.0
vertex 587.857497051472 92.1063597481782 9.0
vertex 588.918655136393 91.9666556359634 8.99999999999995
endloop
endfacet
facet normal 1.19752444084981e-015 -6.94619914736171e-016 1.0
outer loop
vertex 587.857497051472 94.1063597481782 9.0
vertex 588.918655136393 91.9666556359634 8.99999999999995
vertex 607.957497051473 94.1063597481782 9.0
endloop
endfacet
facet normal 1.19752444084981e-015 -6.94619914736171e-016 1.0
outer loop
vertex 607.957497051473 94.1063597481782 9.0
vertex 588.918655136393 91.9666556359634 8.99999999999995
vertex 589.907497051472 91.5570639036944 8.99999999999995
endloop
endfacet
facet normal 1.19752444084981e-015 -6.94619914736171e-016 1.0
outer loop
vertex 607.957497051473 94.1063597481782 9.0
vertex 589.907497051472 91.5570639036944 8.99999999999995
vertex 607.957497051473 91.5570639036944 8.99999999999995
endloop
endfacet
facet normal -0.321439465303169 -0.946930129495103 -2.12036971634102e-018
outer loop
vertex 583.544145686234 83.6930083829402 8.99999999999999
vertex 567.757381810676 83.6930083829402 2.8199664825479e-015
vertex 583.544145686234 83.6930083829402 0.0
endloop
endfacet
facet normal 0.0 -1.0 0.0
outer loop
vertex 567.757381810676 83.6930083829402 2.8199664825479e-015
vertex 583.544145686234 83.6930083829402 8.99999999999999
vertex 567.757381810676 83.6930083829402 9.0
endloop
endfacet
facet normal -0.500000000000008 -0.866025403784434 -2.02516755928323e-018
outer loop
vertex 584.807497051472 82.7236047850931 9.0
vertex 583.544145686234 83.6930083829402 0.0
vertex 584.807497051472 82.7236047850931 0.0
endloop
endfacet
facet normal -0.321439465303169 -0.946930129495103 -2.12036971634102e-018
outer loop
vertex 583.544145686234 83.6930083829402 0.0
vertex 584.807497051472 82.7236047850931 9.0
vertex 583.544145686234 83.6930083829402 8.99999999999999
endloop
endfacet
facet normal -0.258819045102524 -0.965925826289068 0.0
outer loop
vertex 586.278700876347 82.1142122078149 9.0
vertex 584.807497051472 82.7236047850931 0.0
vertex 586.278700876347 82.1142122078149 0.0
endloop
endfacet
facet normal -0.500000000000008 -0.866025403784434 -2.02516755928323e-018
outer loop
vertex 584.807497051472 82.7236047850931 0.0
vertex 586.278700876347 82.1142122078149 9.0
vertex 584.807497051472 82.7236047850931 9.0
endloop
endfacet
facet normal -0.130526192220054 -0.99144486137381 0.0
outer loop
vertex 587.857497051472 81.9063597481782 9.0
vertex 586.278700876347 82.1142122078149 0.0
vertex 587.857497051472 81.9063597481782 0.0
endloop
endfacet
facet normal -0.258819045102524 -0.965925826289068 0.0
outer loop
vertex 586.278700876347 82.1142122078149 0.0
vertex 587.857497051472 81.9063597481782 9.0
vertex 586.278700876347 82.1142122078149 9.0
endloop
endfacet
facet normal 0.0 1.0 0.0
outer loop
vertex 567.757381810676 92.3197111134161 0.00600000000000065
vertex 583.544145686234 92.3197111134161 9.0
vertex 583.544145686234 92.3197111134161 0.0
endloop
endfacet
facet normal -0.321439465303171 0.946930129495103 0.0
outer loop
vertex 583.544145686234 92.3197111134161 9.0
vertex 567.757381810676 92.3197111134161 0.00600000000000065
vertex 567.757381810676 92.3197111134161 9.00000000000004
endloop
endfacet
facet normal -1.0 0.0 0.0
outer loop
vertex 567.757381810676 92.3197111134161 9.00000000000004
vertex 567.757381810676 83.6930083829402 2.8199664825479e-015
vertex 567.757381810676 83.6930083829402 9.0
endloop
endfacet
facet normal -1.0 0.0 0.0
outer loop
vertex 567.757381810676 83.6930083829402 2.8199664825479e-015
vertex 567.757381810676 92.3197111134161 9.00000000000004
vertex 567.757381810676 92.3197111134161 0.00600000000000065
endloop
endfacet
facet normal 0.0 0.0 -1.0
outer loop
vertex 607.957497051473 92.1063597481782 0.0
vertex 588.918655136393 91.9666556359634 0.0
vertex 587.857497051472 92.1063597481782 0.0
endloop
endfacet
facet normal 0.0 0.0 -1.0
outer loop
vertex 588.918655136393 91.9666556359634 0.0
vertex 607.957497051473 92.1063597481782 0.0
vertex 589.907497051472 91.5570639036944 0.0
endloop
endfacet
facet normal 0.0 0.0 -1.0
outer loop
vertex 589.907497051472 91.5570639036944 0.0
vertex 607.957497051473 92.1063597481782 0.0
vertex 607.957497051473 91.5570639036944 0.0
endloop
endfacet
facet normal -0.866025403784423 0.500000000000027 0.0
outer loop
vertex 575.489052089251 87.0063597481782 9.0
vertex 575.171214844055 86.5921461858051 1.40998324127395e-015
vertex 575.171214844055 86.5921461858051 9.0
endloop
endfacet
facet normal -0.707106781186574 0.707106781186521 0.0
outer loop
vertex 575.171214844055 86.5921461858051 1.40998324127395e-015
vertex 575.489052089251 87.0063597481782 9.0
vertex 575.489052089251 87.0063597481782 1.40998324127395e-015
endloop
endfacet
facet normal -0.965925826289067 0.258819045102526 0.0
outer loop
vertex 575.68885293426 87.4887216579731 9.0
vertex 575.489052089251 87.0063597481782 1.40998324127395e-015
vertex 575.489052089251 87.0063597481782 9.0
endloop
endfacet
facet normal -0.866025403784423 0.500000000000027 0.0
outer loop
vertex 575.489052089251 87.0063597481782 1.40998324127395e-015
vertex 575.68885293426 87.4887216579731 9.0
vertex 575.68885293426 87.4887216579731 1.40998324127395e-015
endloop
endfacet
facet normal -1.0 0.0 0.0
outer loop
vertex 575.757001281682 88.0063597481782 9.0
vertex 575.68885293426 87.4887216579731 1.40998324127395e-015
vertex 575.68885293426 87.4887216579731 9.0
endloop
endfacet
facet normal -0.965925826289067 0.258819045102526 0.0
outer loop
vertex 575.68885293426 87.4887216579731 1.40998324127395e-015
vertex 575.757001281682 88.0063597481782 9.0
vertex 575.757001281682 88.0063597481782 1.40998324127395e-015
endloop
endfacet
facet normal -0.965925826289067 -0.258819045102526 0.0
outer loop
vertex 575.68885293426 88.5239978383832 9.0
vertex 575.757001281682 88.0063597481782 1.40998324127395e-015
vertex 575.757001281682 88.0063597481782 9.0
endloop
endfacet
facet normal -1.0 0.0 0.0
outer loop
vertex 575.757001281682 88.0063597481782 1.40998324127395e-015
vertex 575.68885293426 88.5239978383832 9.0
vertex 575.68885293426 88.5239978383832 1.40998324127395e-015
endloop
endfacet
facet normal -0.866025403784423 -0.500000000000027 0.0
outer loop
vertex 575.489052089251 89.0063597481782 9.0
vertex 575.68885293426 88.5239978383832 1.40998324127395e-015
vertex 575.68885293426 88.5239978383832 9.0
endloop
endfacet
facet normal -0.965925826289067 -0.258819045102526 0.0
outer loop
vertex 575.68885293426 88.5239978383832 1.40998324127395e-015
vertex 575.489052089251 89.0063597481782 9.0
vertex 575.489052089251 89.0063597481782 1.40998324127395e-015
endloop
endfacet
facet normal -0.707106781186536 -0.707106781186559 0.0
outer loop
vertex 575.171214844055 89.4205733105513 9.0
vertex 575.489052089251 89.0063597481782 1.40998324127395e-015
vertex 575.489052089251 89.0063597481782 9.0
endloop
endfacet
facet normal -0.866025403784423 -0.500000000000027 0.0
outer loop
vertex 575.489052089251 89.0063597481782 1.40998324127395e-015
vertex 575.171214844055 89.4205733105513 9.0
vertex 575.171214844055 89.4205733105513 1.40998324127395e-015
endloop
endfacet
facet normal -0.707106781186536 -0.707106781186559 0.0
outer loop
vertex 575.171214844055 89.4205733105513 9.0
vertex 574.757001281682 89.7384105557471 1.40998324127395e-015
vertex 575.171214844055 89.4205733105513 1.40998324127395e-015
endloop
endfacet
facet normal -0.5 -0.866025403784439 0.0
outer loop
vertex 574.757001281682 89.7384105557471 1.40998324127395e-015
vertex 575.171214844055 89.4205733105513 9.0
vertex 574.757001281682 89.7384105557471 9.0
endloop
endfacet
facet normal -0.5 -0.866025403784439 0.0
outer loop
vertex 574.757001281682 89.7384105557471 9.0
vertex 574.274639371887 89.9382114007563 1.40998324127395e-015
vertex 574.757001281682 89.7384105557471 1.40998324127395e-015
endloop
endfacet
facet normal -0.25881904510254 -0.965925826289063 0.0
outer loop
vertex 574.274639371887 89.9382114007563 1.40998324127395e-015
vertex 574.757001281682 89.7384105557471 9.0
vertex 574.274639371887 89.9382114007563 9.0
endloop
endfacet
facet normal -0.25881904510254 -0.965925826289063 0.0
outer loop
vertex 574.274639371887 89.9382114007563 9.0
vertex 573.757001281682 90.0063597481782 1.40998324127395e-015
vertex 574.274639371887 89.9382114007563 1.40998324127395e-015
endloop
endfacet
facet normal 0.0 -1.0 0.0
outer loop
vertex 573.757001281682 90.0063597481782 1.40998324127395e-015
vertex 574.274639371887 89.9382114007563 9.0
vertex 573.757001281682 90.0063597481782 9.0
endloop
endfacet
facet normal 0.0 -1.0 0.0
outer loop
vertex 573.757001281682 90.0063597481782 9.0
vertex 573.239363191477 89.9382114007563 1.40998324127395e-015
vertex 573.757001281682 90.0063597481782 1.40998324127395e-015
endloop
endfacet
facet normal 0.258819045102508 -0.965925826289072 0.0
outer loop
vertex 573.239363191477 89.9382114007563 1.40998324127395e-015
vertex 573.757001281682 90.0063597481782 9.0
vertex 573.239363191477 89.9382114007563 9.0
endloop
endfacet
facet normal 0.258819045102508 -0.965925826289072 0.0
outer loop
vertex 573.239363191477 89.9382114007563 9.0
vertex 572.757001281682 89.7384105557471 1.40998324127395e-015
vertex 573.239363191477 89.9382114007563 1.40998324127395e-015
endloop
endfacet
facet normal 0.500000000000017 -0.866025403784429 0.0
outer loop
vertex 572.757001281682 89.7384105557471 1.40998324127395e-015
vertex 573.239363191477 89.9382114007563 9.0
vertex 572.757001281682 89.7384105557471 9.0
endloop
endfacet
facet normal 0.500000000000017 -0.866025403784429 0.0
outer loop
vertex 572.757001281682 89.7384105557471 9.0
vertex 572.342787719309 89.4205733105513 1.40998324127395e-015
vertex 572.757001281682 89.7384105557471 1.40998324127395e-015
endloop
endfacet
facet normal 0.707106781186574 -0.707106781186521 0.0
outer loop
vertex 572.342787719309 89.4205733105513 1.40998324127395e-015
vertex 572.757001281682 89.7384105557471 9.0
vertex 572.342787719309 89.4205733105513 9.0
endloop
endfacet
facet normal 0.707106781186574 -0.707106781186521 0.0
outer loop
vertex 572.342787719309 89.4205733105513 1.40998324127395e-015
vertex 572.024950474113 89.0063597481782 9.0
vertex 572.024950474113 89.0063597481782 1.40998324127395e-015
endloop
endfacet
facet normal 0.866025403784425 -0.500000000000023 0.0
outer loop
vertex 572.024950474113 89.0063597481782 9.0
vertex 572.342787719309 89.4205733105513 1.40998324127395e-015
vertex 572.342787719309 89.4205733105513 9.0
endloop
endfacet
facet normal 0.866025403784425 -0.500000000000023 0.0
outer loop
vertex 572.024950474113 89.0063597481782 1.40998324127395e-015
vertex 571.825149629104 88.5239978383832 9.0
vertex 571.825149629104 88.5239978383832 1.40998324127395e-015
endloop
endfacet
facet normal 0.965925826289068 -0.258819045102523 0.0
outer loop
vertex 571.825149629104 88.5239978383832 9.0
vertex 572.024950474113 89.0063597481782 1.40998324127395e-015
vertex 572.024950474113 89.0063597481782 9.0
endloop
endfacet
facet normal 0.965925826289068 -0.258819045102523 0.0
outer loop
vertex 571.825149629104 88.5239978383832 1.40998324127395e-015
vertex 571.757001281682 88.0063597481782 9.0
vertex 571.757001281682 88.0063597481782 1.40998324127395e-015
endloop
endfacet
facet normal 1.0 -1.41686647340785e-015 0.0
outer loop
vertex 571.757001281682 88.0063597481782 9.0
vertex 571.825149629104 88.5239978383832 1.40998324127395e-015
vertex 571.825149629104 88.5239978383832 9.0
endloop
endfacet
facet normal 1.0 -1.41686647340785e-015 0.0
outer loop
vertex 571.757001281682 88.0063597481782 1.40998324127395e-015
vertex 571.825149629104 87.4887216579731 9.0
vertex 571.825149629104 87.4887216579731 1.40998324127395e-015
endloop
endfacet
facet normal 0.965925826289067 0.258819045102526 0.0
outer loop
vertex 571.825149629104 87.4887216579731 9.0
vertex 571.757001281682 88.0063597481782 1.40998324127395e-015
vertex 571.757001281682 88.0063597481782 9.0
endloop
endfacet
facet normal 0.965925826289067 0.258819045102526 0.0
outer loop
vertex 571.825149629104 87.4887216579731 1.40998324127395e-015
vertex 572.024950474113 87.0063597481782 9.0
vertex 572.024950474113 87.0063597481782 1.40998324127395e-015
endloop
endfacet
facet normal 0.866025403784423 0.500000000000027 0.0
outer loop
vertex 572.024950474113 87.0063597481782 9.0
vertex 571.825149629104 87.4887216579731 1.40998324127395e-015
vertex 571.825149629104 87.4887216579731 9.0
endloop
endfacet
facet normal 0.866025403784423 0.500000000000027 0.0
outer loop
vertex 572.024950474113 87.0063597481782 1.40998324127395e-015
vertex 572.342787719309 86.5921461858051 9.0
vertex 572.342787719309 86.5921461858051 1.40998324127395e-015
endloop
endfacet
facet normal 0.707106781186536 0.707106781186559 0.0
outer loop
vertex 572.342787719309 86.5921461858051 9.0
vertex 572.024950474113 87.0063597481782 1.40998324127395e-015
vertex 572.024950474113 87.0063597481782 9.0
endloop
endfacet
facet normal 0.707106781186536 0.707106781186559 0.0
outer loop
vertex 572.342787719309 86.5921461858051 9.0
vertex 572.757001281682 86.2743089406093 1.40998324127395e-015
vertex 572.342787719309 86.5921461858051 1.40998324127395e-015
endloop
endfacet
facet normal 0.5 0.866025403784439 0.0
outer loop
vertex 572.757001281682 86.2743089406093 1.40998324127395e-015
vertex 572.342787719309 86.5921461858051 9.0
vertex 572.757001281682 86.2743089406093 9.0
endloop
endfacet
facet normal 0.5 0.866025403784439 0.0
outer loop
vertex 572.757001281682 86.2743089406093 9.0
vertex 573.239363191477 86.0745080956001 1.40998324127395e-015
vertex 572.757001281682 86.2743089406093 1.40998324127395e-015
endloop
endfacet
facet normal 0.25881904510254 0.965925826289063 0.0
outer loop
vertex 573.239363191477 86.0745080956001 1.40998324127395e-015
vertex 572.757001281682 86.2743089406093 9.0
vertex 573.239363191477 86.0745080956001 9.0
endloop
endfacet
facet normal 0.25881904510254 0.965925826289063 0.0
outer loop
vertex 573.239363191477 86.0745080956001 9.0
vertex 573.757001281682 86.0063597481782 1.40998324127395e-015
vertex 573.239363191477 86.0745080956001 1.40998324127395e-015
endloop
endfacet
facet normal 0.0 1.0 0.0
outer loop
vertex 573.757001281682 86.0063597481782 1.40998324127395e-015
vertex 573.239363191477 86.0745080956001 9.0
vertex 573.757001281682 86.0063597481782 9.0
endloop
endfacet
facet normal 0.0 1.0 0.0
outer loop
vertex 573.757001281682 86.0063597481782 9.0
vertex 574.274639371887 86.0745080956001 1.40998324127395e-015
vertex 573.757001281682 86.0063597481782 1.40998324127395e-015
endloop
endfacet
facet normal -0.258819045102508 0.965925826289072 0.0
outer loop
vertex 574.274639371887 86.0745080956001 1.40998324127395e-015
vertex 573.757001281682 86.0063597481782 9.0
vertex 574.274639371887 86.0745080956001 9.0
endloop
endfacet
facet normal -0.258819045102508 0.965925826289072 0.0
outer loop
vertex 574.274639371887 86.0745080956001 9.0
vertex 574.757001281682 86.2743089406093 1.40998324127395e-015
vertex 574.274639371887 86.0745080956001 1.40998324127395e-015
endloop
endfacet
facet normal -0.500000000000017 0.866025403784429 0.0
outer loop
vertex 574.757001281682 86.2743089406093 1.40998324127395e-015
vertex 574.274639371887 86.0745080956001 9.0
vertex 574.757001281682 86.2743089406093 9.0
endloop
endfacet
facet normal -0.500000000000017 0.866025403784429 0.0
outer loop
vertex 574.757001281682 86.2743089406093 9.0
vertex 575.171214844055 86.5921461858051 1.40998324127395e-015
vertex 574.757001281682 86.2743089406093 1.40998324127395e-015
endloop
endfacet
facet normal -0.707106781186574 0.707106781186521 0.0
outer loop
vertex 575.171214844055 86.5921461858051 1.40998324127395e-015
vertex 574.757001281682 86.2743089406093 9.0
vertex 575.171214844055 86.5921461858051 9.0
endloop
endfacet
facet normal 1.0 0.0 0.0
outer loop
vertex 607.957497051473 92.1063597481782 0.0
vertex 607.957497051473 91.5570639036944 8.99999999999995
vertex 607.957497051473 91.5570639036944 0.0
endloop
endfacet
facet normal 1.0 0.0 0.0
outer loop
vertex 607.957497051473 91.5570639036944 8.99999999999995
vertex 607.957497051473 92.1063597481782 0.0
vertex 607.957497051473 94.1063597481782 9.0
endloop
endfacet
facet normal 1.0 0.0 0.0
outer loop
vertex 607.957497051473 94.1063597481782 9.0
vertex 607.957497051473 92.1063597481782 0.0
vertex 607.957497051473 94.1063597481782 0.0
endloop
endfacet
facet normal -0.0 -1.0 -0.0
outer loop
vertex 607.957497051473 91.5570639036944 0.0
vertex 602.475135141678 91.5570639036944 2.56814834742182
vertex 589.907497051472 91.5570639036944 0.0
endloop
endfacet
facet normal -0.0 -1.0 -0.0
outer loop
vertex 602.475135141678 91.5570639036944 2.56814834742182
vertex 607.957497051473 91.5570639036944 0.0
vertex 602.957497051473 91.5570639036944 2.76794919243108
endloop
endfacet
facet normal -0.0 -1.0 -0.0
outer loop
vertex 602.957497051473 91.5570639036944 2.76794919243108
vertex 607.957497051473 91.5570639036944 0.0
vertex 603.371710613846 91.5570639036944 3.08578643762686
endloop
endfacet
facet normal -0.0 -1.0 -0.0
outer loop
vertex 603.371710613846 91.5570639036944 3.08578643762686
vertex 607.957497051473 91.5570639036944 0.0
vertex 607.957497051473 91.5570639036944 8.99999999999995
endloop
endfacet
facet normal -0.0 -1.0 -0.0
outer loop
vertex 589.907497051472 91.5570639036944 0.0
vertex 602.475135141678 91.5570639036944 2.56814834742182
vertex 601.957497051473 91.5570639036944 2.49999999999996
endloop
endfacet
facet normal -0.0 -1.0 -0.0
outer loop
vertex 603.371710613846 91.5570639036944 3.08578643762686
vertex 607.957497051473 91.5570639036944 8.99999999999995
vertex 603.689547859042 91.5570639036944 3.49999999999996
endloop
endfacet
facet normal -0.0 -1.0 -0.0
outer loop
vertex 603.689547859042 91.5570639036944 3.49999999999996
vertex 607.957497051473 91.5570639036944 8.99999999999995
vertex 603.889348704051 91.5570639036944 3.98236190979491
endloop
endfacet
facet normal -0.0 -1.0 -0.0
outer loop
vertex 603.889348704051 91.5570639036944 3.98236190979491
vertex 607.957497051473 91.5570639036944 8.99999999999995
vertex 603.957497051473 91.5570639036944 4.49999999999995
endloop
endfacet
facet normal -0.0 -1.0 -0.0
outer loop
vertex 603.957497051473 91.5570639036944 4.49999999999995
vertex 607.957497051473 91.5570639036944 8.99999999999995
vertex 603.889348704051 91.5570639036944 5.017638090205
endloop
endfacet
facet normal -0.0 -1.0 -0.0
outer loop
vertex 603.889348704051 91.5570639036944 5.017638090205
vertex 607.957497051473 91.5570639036944 8.99999999999995
vertex 603.689547859042 91.5570639036944 5.49999999999995
endloop
endfacet
facet normal -0.0 -1.0 -0.0
outer loop
vertex 603.689547859042 91.5570639036944 5.49999999999995
vertex 607.957497051473 91.5570639036944 8.99999999999995
vertex 603.371710613846 91.5570639036944 5.91421356237305
endloop
endfacet
facet normal -0.0 -1.0 -0.0
outer loop
vertex 603.371710613846 91.5570639036944 5.91421356237305
vertex 607.957497051473 91.5570639036944 8.99999999999995
vertex 602.957497051473 91.5570639036944 6.23205080756883
endloop
endfacet
facet normal -0.0 -1.0 -0.0
outer loop
vertex 602.957497051473 91.5570639036944 6.23205080756883
vertex 607.957497051473 91.5570639036944 8.99999999999995
vertex 602.475135141678 91.5570639036944 6.43185165257808
endloop
endfacet
facet normal -0.0 -1.0 -0.0
outer loop
vertex 602.475135141678 91.5570639036944 6.43185165257808
vertex 607.957497051473 91.5570639036944 8.99999999999995
vertex 601.957497051473 91.5570639036944 6.49999999999995
endloop
endfacet
facet normal -0.0 -1.0 -0.0
outer loop
vertex 589.907497051472 91.5570639036944 0.0
vertex 600.957497051473 91.5570639036944 2.76794919243108
vertex 589.907497051472 91.5570639036944 8.99999999999995
endloop
endfacet
facet normal -0.0 -1.0 -0.0
outer loop
vertex 600.957497051473 91.5570639036944 2.76794919243108
vertex 589.907497051472 91.5570639036944 0.0
vertex 601.439858961268 91.5570639036944 2.56814834742182
endloop
endfacet
facet normal -0.0 -1.0 -0.0
outer loop
vertex 601.439858961268 91.5570639036944 2.56814834742182
vertex 589.907497051472 91.5570639036944 0.0
vertex 601.957497051473 91.5570639036944 2.49999999999996
endloop
endfacet
facet normal -0.0 -1.0 -0.0
outer loop
vertex 589.907497051472 91.5570639036944 8.99999999999995
vertex 600.957497051473 91.5570639036944 2.76794919243108
vertex 600.543283489099 91.5570639036944 3.08578643762686
endloop
endfacet
facet normal -0.0 -1.0 -0.0
outer loop
vertex 589.907497051472 91.5570639036944 8.99999999999995
vertex 600.543283489099 91.5570639036944 3.08578643762686
vertex 600.225446243904 91.5570639036944 3.49999999999995
endloop
endfacet
facet normal -0.0 -1.0 -0.0
outer loop
vertex 589.907497051472 91.5570639036944 8.99999999999995
vertex 600.225446243904 91.5570639036944 3.49999999999995
vertex 600.025645398894 91.5570639036944 3.98236190979491
endloop
endfacet
facet normal -0.0 -1.0 -0.0
outer loop
vertex 589.907497051472 91.5570639036944 8.99999999999995
vertex 600.025645398894 91.5570639036944 3.98236190979491
vertex 599.957497051473 91.5570639036944 4.49999999999995
endloop
endfacet
facet normal -0.0 -1.0 -0.0
outer loop
vertex 589.907497051472 91.5570639036944 8.99999999999995
vertex 599.957497051473 91.5570639036944 4.49999999999995
vertex 600.025645398894 91.5570639036944 5.01763809020499
endloop
endfacet
facet normal -0.0 -1.0 -0.0
outer loop
vertex 589.907497051472 91.5570639036944 8.99999999999995
vertex 600.025645398894 91.5570639036944 5.01763809020499
vertex 600.225446243904 91.5570639036944 5.49999999999995
endloop
endfacet
facet normal -0.0 -1.0 -0.0
outer loop
vertex 589.907497051472 91.5570639036944 8.99999999999995
vertex 600.225446243904 91.5570639036944 5.49999999999995
vertex 600.543283489099 91.5570639036944 5.91421356237305
endloop
endfacet
facet normal -0.0 -1.0 -0.0
outer loop
vertex 589.907497051472 91.5570639036944 8.99999999999995
vertex 600.543283489099 91.5570639036944 5.91421356237305
vertex 600.957497051473 91.5570639036944 6.23205080756883
endloop
endfacet
facet normal -0.0 -1.0 -0.0
outer loop
vertex 589.907497051472 91.5570639036944 8.99999999999995
vertex 600.957497051473 91.5570639036944 6.23205080756883
vertex 601.439858961268 91.5570639036944 6.43185165257808
endloop
endfacet
facet normal -0.0 -1.0 -0.0
outer loop
vertex 589.907497051472 91.5570639036944 8.99999999999995
vertex 601.439858961268 91.5570639036944 6.43185165257808
vertex 601.957497051473 91.5570639036944 6.49999999999995
endloop
endfacet
facet normal -0.0 -1.0 -0.0
outer loop
vertex 589.907497051472 91.5570639036944 8.99999999999995
vertex 601.957497051473 91.5570639036944 6.49999999999995
vertex 607.957497051473 91.5570639036944 8.99999999999995
endloop
endfacet
facet normal -0.382683432365086 -0.923879532511288 -0.0
outer loop
vertex 589.907497051472 91.5570639036944 8.99999999999995
vertex 588.918655136393 91.9666556359634 0.0
vertex 589.907497051472 91.5570639036944 0.0
endloop
endfacet
facet normal -0.258819045102519 -0.965925826289069 1.02828801403845e-019
outer loop
vertex 588.918655136393 91.9666556359634 0.0
vertex 589.907497051472 91.5570639036944 8.99999999999995
vertex 588.918655136393 91.9666556359634 8.99999999999995
endloop
endfacet
facet normal -0.258819045102518 -0.965925826289069 1.02828801403847e-019
outer loop
vertex 588.918655136393 91.9666556359634 8.99999999999995
vertex 587.857497051472 92.1063597481782 0.0
vertex 588.918655136393 91.9666556359634 0.0
endloop
endfacet
facet normal -0.130526192220052 -0.99144486137381 2.03898173506141e-019
outer loop
vertex 587.857497051472 92.1063597481782 0.0
vertex 588.918655136393 91.9666556359634 8.99999999999995
vertex 587.857497051472 92.1063597481782 9.0
endloop
endfacet
facet normal -1.0 0.0 1.78222197912937e-016
outer loop
vertex 603.957497051473 94.1063597481781 4.49999999999995
vertex 603.889348704051 91.5570639036944 3.98236190979491
vertex 603.957497051473 91.5570639036944 4.49999999999995
endloop
endfacet
facet normal -0.965925826289067 0.0 0.258819045102525
outer loop
vertex 603.889348704051 91.5570639036944 3.98236190979491
vertex 603.957497051473 94.1063597481781 4.49999999999995
vertex 603.889348704051 94.1063597481781 3.98236190979491
endloop
endfacet
facet normal -0.965925826289067 0.0 0.258819045102525
outer loop
vertex 603.889348704051 94.1063597481781 3.98236190979491
vertex 603.689547859042 91.5570639036944 3.49999999999996
vertex 603.889348704051 91.5570639036944 3.98236190979491
endloop
endfacet
facet normal -0.866025403784426 0.0 0.500000000000023
outer loop
vertex 603.689547859042 91.5570639036944 3.49999999999996
vertex 603.889348704051 94.1063597481781 3.98236190979491
vertex 603.689547859042 94.1063597481781 3.49999999999996
endloop
endfacet
facet normal -0.866025403784426 0.0 0.500000000000023
outer loop
vertex 603.689547859042 94.1063597481781 3.49999999999996
vertex 603.371710613846 91.5570639036944 3.08578643762686
vertex 603.689547859042 91.5570639036944 3.49999999999996
endloop
endfacet
facet normal -0.707106781186496 0.0 0.707106781186599
outer loop
vertex 603.371710613846 91.5570639036944 3.08578643762686
vertex 603.689547859042 94.1063597481781 3.49999999999996
vertex 603.371710613846 94.1063597481781 3.08578643762686
endloop
endfacet
facet normal -0.707106781186496 0.0 0.707106781186599
outer loop
vertex 603.371710613846 91.5570639036944 3.08578643762686
vertex 602.957497051473 94.1063597481781 2.76794919243108
vertex 602.957497051473 91.5570639036944 2.76794919243108
endloop
endfacet
facet normal -0.499999999999952 0.0 0.866025403784467
outer loop
vertex 602.957497051473 94.1063597481781 2.76794919243108
vertex 603.371710613846 91.5570639036944 3.08578643762686
vertex 603.371710613846 94.1063597481781 3.08578643762686
endloop
endfacet
facet normal -0.499999999999952 0.0 0.866025403784467
outer loop
vertex 602.957497051473 91.5570639036944 2.76794919243108
vertex 602.475135141678 94.1063597481781 2.56814834742182
vertex 602.475135141678 91.5570639036944 2.56814834742182
endloop
endfacet
facet normal -0.258819045102543 0.0 0.965925826289062
outer loop
vertex 602.475135141678 94.1063597481781 2.56814834742182
vertex 602.957497051473 91.5570639036944 2.76794919243108
vertex 602.957497051473 94.1063597481781 2.76794919243108
endloop
endfacet
facet normal 0.0 1.0 0.0
outer loop
vertex 589.907497051472 84.455655592662 0.0
vertex 601.439858961268 84.4556555926621 2.56814834742187
vertex 607.957497051473 84.455655592662 0.0
endloop
endfacet
facet normal 0.0 1.0 0.0
outer loop
vertex 601.439858961268 84.4556555926621 2.56814834742187
vertex 589.907497051472 84.455655592662 0.0
vertex 600.957497051473 84.4556555926621 2.76794919243112
endloop
endfacet
facet normal 0.0 1.0 0.0
outer loop
vertex 600.957497051473 84.4556555926621 2.76794919243112
vertex 589.907497051472 84.455655592662 0.0
vertex 589.907497051472 84.455655592662 8.99999999999994
endloop
endfacet
facet normal 0.0 1.0 0.0
outer loop
vertex 607.957497051473 84.455655592662 0.0
vertex 601.439858961268 84.4556555926621 2.56814834742187
vertex 601.957497051473 84.4556555926621 2.5
endloop
endfacet
facet normal 0.0 1.0 0.0
outer loop
vertex 600.957497051473 84.4556555926621 2.76794919243112
vertex 589.907497051472 84.455655592662 8.99999999999994
vertex 600.543283489099 84.4556555926621 3.08578643762691
endloop
endfacet
facet normal 0.0 1.0 0.0
outer loop
vertex 600.543283489099 84.4556555926621 3.08578643762691
vertex 589.907497051472 84.455655592662 8.99999999999994
vertex 600.225446243904 84.4556555926621 3.5
endloop
endfacet
facet normal 0.0 1.0 0.0
outer loop
vertex 600.225446243904 84.4556555926621 3.5
vertex 589.907497051472 84.455655592662 8.99999999999994
vertex 600.025645398894 84.4556555926621 3.98236190979496
endloop
endfacet
facet normal 0.0 1.0 0.0
outer loop
vertex 600.025645398894 84.4556555926621 3.98236190979496
vertex 589.907497051472 84.455655592662 8.99999999999994
vertex 599.957497051473 84.4556555926621 4.5
endloop
endfacet
facet normal 0.0 1.0 0.0
outer loop
vertex 599.957497051473 84.4556555926621 4.5
vertex 589.907497051472 84.455655592662 8.99999999999994
vertex 600.025645398894 84.4556555926621 5.01763809020504
endloop
endfacet
facet normal 0.0 1.0 0.0
outer loop
vertex 600.025645398894 84.4556555926621 5.01763809020504
vertex 589.907497051472 84.455655592662 8.99999999999994
vertex 600.225446243904 84.4556555926621 5.49999999999999
endloop
endfacet
facet normal 0.0 1.0 0.0
outer loop
vertex 600.225446243904 84.4556555926621 5.49999999999999
vertex 589.907497051472 84.455655592662 8.99999999999994
vertex 600.543283489099 84.4556555926621 5.91421356237309
endloop
endfacet
facet normal 0.0 1.0 0.0
outer loop
vertex 600.543283489099 84.4556555926621 5.91421356237309
vertex 589.907497051472 84.455655592662 8.99999999999994
vertex 600.957497051473 84.4556555926621 6.23205080756887
endloop
endfacet
facet normal 0.0 1.0 0.0
outer loop
vertex 600.957497051473 84.4556555926621 6.23205080756887
vertex 589.907497051472 84.455655592662 8.99999999999994
vertex 601.439858961268 84.4556555926621 6.43185165257813
endloop
endfacet
facet normal 0.0 1.0 0.0
outer loop
vertex 601.439858961268 84.4556555926621 6.43185165257813
vertex 589.907497051472 84.455655592662 8.99999999999994
vertex 601.957497051473 84.4556555926621 6.49999999999999
endloop
endfacet
facet normal 0.0 1.0 0.0
outer loop
vertex 607.957497051473 84.455655592662 0.0
vertex 603.371710613846 84.4556555926621 3.08578643762691
vertex 607.957497051473 84.455655592662 8.99999999999994
endloop
endfacet
facet normal 0.0 1.0 0.0
outer loop
vertex 603.371710613846 84.4556555926621 3.08578643762691
vertex 607.957497051473 84.455655592662 0.0
vertex 602.957497051473 84.4556555926621 2.76794919243112
endloop
endfacet
facet normal 0.0 1.0 0.0
outer loop
vertex 602.957497051473 84.4556555926621 2.76794919243112
vertex 607.957497051473 84.455655592662 0.0
vertex 602.475135141678 84.4556555926621 2.56814834742187
endloop
endfacet
facet normal 0.0 1.0 0.0
outer loop
vertex 602.475135141678 84.4556555926621 2.56814834742187
vertex 607.957497051473 84.455655592662 0.0
vertex 601.957497051473 84.4556555926621 2.5
endloop
endfacet
facet normal 0.0 1.0 0.0
outer loop
vertex 607.957497051473 84.455655592662 8.99999999999994
vertex 603.371710613846 84.4556555926621 3.08578643762691
vertex 603.689547859042 84.4556555926621 3.5
endloop
endfacet
facet normal 0.0 1.0 0.0
outer loop
vertex 607.957497051473 84.455655592662 8.99999999999994
vertex 603.689547859042 84.4556555926621 3.5
vertex 603.889348704051 84.4556555926621 3.98236190979496
endloop
endfacet
facet normal 0.0 1.0 0.0
outer loop
vertex 607.957497051473 84.455655592662 8.99999999999994
vertex 603.889348704051 84.4556555926621 3.98236190979496
vertex 603.957497051473 84.4556555926621 4.5
endloop
endfacet
facet normal 0.0 1.0 0.0
outer loop
vertex 607.957497051473 84.455655592662 8.99999999999994
vertex 603.957497051473 84.4556555926621 4.5
vertex 603.889348704051 84.4556555926621 5.01763809020504
endloop
endfacet
facet normal 0.0 1.0 0.0
outer loop
vertex 607.957497051473 84.455655592662 8.99999999999994
vertex 603.889348704051 84.4556555926621 5.01763809020504
vertex 603.689547859042 84.4556555926621 5.49999999999999
endloop
endfacet
facet normal 0.0 1.0 0.0
outer loop
vertex 607.957497051473 84.455655592662 8.99999999999994
vertex 603.689547859042 84.4556555926621 5.49999999999999
vertex 603.371710613846 84.4556555926621 5.91421356237309
endloop
endfacet
facet normal 0.0 1.0 0.0
outer loop
vertex 607.957497051473 84.455655592662 8.99999999999994
vertex 603.371710613846 84.4556555926621 5.91421356237309
vertex 602.957497051473 84.4556555926621 6.23205080756887
endloop
endfacet
facet normal 0.0 1.0 0.0
outer loop
vertex 607.957497051473 84.455655592662 8.99999999999994
vertex 602.957497051473 84.4556555926621 6.23205080756887
vertex 602.475135141678 84.4556555926621 6.43185165257813
endloop
endfacet
facet normal 0.0 1.0 0.0
outer loop
vertex 607.957497051473 84.455655592662 8.99999999999994
vertex 602.475135141678 84.4556555926621 6.43185165257813
vertex 601.957497051473 84.4556555926621 6.49999999999999
endloop
endfacet
facet normal 0.0 1.0 0.0
outer loop
vertex 607.957497051473 84.455655592662 8.99999999999994
vertex 601.957497051473 84.4556555926621 6.49999999999999
vertex 589.907497051472 84.455655592662 8.99999999999994
endloop
endfacet
facet normal -0.258819045102517 0.965925826289069 2.47367317111035e-019
outer loop
vertex 588.918655136393 84.046063860393 8.99999999999994
vertex 589.907497051472 84.455655592662 0.0
vertex 588.918655136393 84.046063860393 0.0
endloop
endfacet
facet normal -0.382683432365086 0.923879532511288 0.0
outer loop
vertex 589.907497051472 84.455655592662 0.0
vertex 588.918655136393 84.046063860393 8.99999999999994
vertex 589.907497051472 84.455655592662 8.99999999999994
endloop
endfacet
facet normal -0.130526192220052 0.99144486137381 4.90502110843116e-019
outer loop
vertex 587.857497051472 83.9063597481782 9.0
vertex 588.918655136393 84.046063860393 0.0
vertex 587.857497051472 83.9063597481782 0.0
endloop
endfacet
facet normal -0.258819045102519 0.965925826289069 2.47367317111031e-019
outer loop
vertex 588.918655136393 84.046063860393 0.0
vertex 587.857497051472 83.9063597481782 9.0
vertex 588.918655136393 84.046063860393 8.99999999999994
endloop
endfacet
facet normal 1.0 0.0 0.0
outer loop
vertex 607.957497051473 83.9063597481782 0.0
vertex 607.957497051473 81.9063597481782 9.0
vertex 607.957497051473 81.9063597481782 0.0
endloop
endfacet
facet normal 1.0 0.0 0.0
outer loop
vertex 607.957497051473 81.9063597481782 9.0
vertex 607.957497051473 83.9063597481782 0.0
vertex 607.957497051473 84.455655592662 8.99999999999994
endloop
endfacet
facet normal 1.0 0.0 0.0
outer loop
vertex 607.957497051473 84.455655592662 8.99999999999994
vertex 607.957497051473 83.9063597481782 0.0
vertex 607.957497051473 84.455655592662 0.0
endloop
endfacet
facet normal -0.258819045102543 0.0 0.965925826289062
outer loop
vertex 602.475135141678 81.9063597481782 2.56814834742187
vertex 601.957497051473 84.4556555926621 2.5
vertex 601.957497051473 81.9063597481782 2.5
endloop
endfacet
facet normal -6.5942213227787e-016 0.0 1.0
outer loop
vertex 601.957497051473 84.4556555926621 2.5
vertex 602.475135141678 81.9063597481782 2.56814834742187
vertex 602.475135141678 84.4556555926621 2.56814834742187
endloop
endfacet
facet normal -6.5942213227787e-016 0.0 1.0
outer loop
vertex 601.957497051473 81.9063597481782 2.5
vertex 601.439858961268 84.4556555926621 2.56814834742187
vertex 601.439858961268 81.9063597481782 2.56814834742187
endloop
endfacet
facet normal 0.258819045102543 0.0 0.965925826289062
outer loop
vertex 601.439858961268 84.4556555926621 2.56814834742187
vertex 601.957497051473 81.9063597481782 2.5
vertex 601.957497051473 84.4556555926621 2.5
endloop
endfacet
facet normal 0.258819045102543 0.0 0.965925826289062
outer loop
vertex 601.439858961268 81.9063597481782 2.56814834742187
vertex 600.957497051473 84.4556555926621 2.76794919243112
vertex 600.957497051473 81.9063597481782 2.76794919243112
endloop
endfacet
facet normal 0.499999999999952 0.0 0.866025403784467
outer loop
vertex 600.957497051473 84.4556555926621 2.76794919243112
vertex 601.439858961268 81.9063597481782 2.56814834742187
vertex 601.439858961268 84.4556555926621 2.56814834742187
endloop
endfacet
facet normal -0.258819045102543 0.0 0.965925826289062
outer loop
vertex 602.475135141678 91.5570639036944 2.56814834742182
vertex 601.957497051473 94.1063597481781 2.49999999999996
vertex 601.957497051473 91.5570639036944 2.49999999999996
endloop
endfacet
facet normal -6.5942213227787e-016 0.0 1.0
outer loop
vertex 601.957497051473 94.1063597481781 2.49999999999996
vertex 602.475135141678 91.5570639036944 2.56814834742182
vertex 602.475135141678 94.1063597481781 2.56814834742182
endloop
endfacet
facet normal -6.5942213227787e-016 0.0 1.0
outer loop
vertex 601.957497051473 91.5570639036944 2.49999999999996
vertex 601.439858961268 94.1063597481781 2.56814834742182
vertex 601.439858961268 91.5570639036944 2.56814834742182
endloop
endfacet
facet normal 0.258819045102543 0.0 0.965925826289062
outer loop
vertex 601.439858961268 94.1063597481781 2.56814834742182
vertex 601.957497051473 91.5570639036944 2.49999999999996
vertex 601.957497051473 94.1063597481781 2.49999999999996
endloop
endfacet
facet normal 0.499999999999952 0.0 0.866025403784467
outer loop
vertex 600.957497051473 81.9063597481782 2.76794919243112
vertex 600.543283489099 84.4556555926621 3.08578643762691
vertex 600.543283489099 81.9063597481782 3.08578643762691
endloop
endfacet
facet normal 0.707106781186496 0.0 0.707106781186599
outer loop
vertex 600.543283489099 84.4556555926621 3.08578643762691
vertex 600.957497051473 81.9063597481782 2.76794919243112
vertex 600.957497051473 84.4556555926621 2.76794919243112
endloop
endfacet
facet normal 0.258819045102543 0.0 0.965925826289062
outer loop
vertex 601.439858961268 91.5570639036944 2.56814834742182
vertex 600.957497051473 94.1063597481781 2.76794919243108
vertex 600.957497051473 91.5570639036944 2.76794919243108
endloop
endfacet
facet normal 0.499999999999952 0.0 0.866025403784467
outer loop
vertex 600.957497051473 94.1063597481781 2.76794919243108
vertex 601.439858961268 91.5570639036944 2.56814834742182
vertex 601.439858961268 94.1063597481781 2.56814834742182
endloop
endfacet
facet normal 0.707106781186496 0.0 0.707106781186599
outer loop
vertex 600.543283489099 84.4556555926621 3.08578643762691
vertex 600.225446243904 81.9063597481782 3.5
vertex 600.543283489099 81.9063597481782 3.08578643762691
endloop
endfacet
facet normal 0.866025403784426 0.0 0.500000000000023
outer loop
vertex 600.225446243904 81.9063597481782 3.5
vertex 600.543283489099 84.4556555926621 3.08578643762691
vertex 600.225446243904 84.4556555926621 3.5
endloop
endfacet
facet normal 0.499999999999952 0.0 0.866025403784467
outer loop
vertex 600.957497051473 91.5570639036944 2.76794919243108
vertex 600.543283489099 94.1063597481781 3.08578643762686
vertex 600.543283489099 91.5570639036944 3.08578643762686
endloop
endfacet
facet normal 0.707106781186496 0.0 0.707106781186599
outer loop
vertex 600.543283489099 94.1063597481781 3.08578643762686
vertex 600.957497051473 91.5570639036944 2.76794919243108
vertex 600.957497051473 94.1063597481781 2.76794919243108
endloop
endfacet
facet normal 0.707106781186496 0.0 0.707106781186599
outer loop
vertex 600.543283489099 94.1063597481781 3.08578643762686
vertex 600.225446243904 91.5570639036944 3.49999999999995
vertex 600.543283489099 91.5570639036944 3.08578643762686
endloop
endfacet
facet normal 0.866025403784426 0.0 0.500000000000023
outer loop
vertex 600.225446243904 91.5570639036944 3.49999999999995
vertex 600.543283489099 94.1063597481781 3.08578643762686
vertex 600.225446243904 94.1063597481781 3.49999999999995
endloop
endfacet
facet normal 0.866025403784426 0.0 0.500000000000023
outer loop
vertex 600.225446243904 94.1063597481781 3.49999999999995
vertex 600.025645398894 91.5570639036944 3.98236190979491
vertex 600.225446243904 91.5570639036944 3.49999999999995
endloop
endfacet
facet normal 0.965925826289067 0.0 0.258819045102525
outer loop
vertex 600.025645398894 91.5570639036944 3.98236190979491
vertex 600.225446243904 94.1063597481781 3.49999999999995
vertex 600.025645398894 94.1063597481781 3.98236190979491
endloop
endfacet
facet normal 0.965925826289067 0.0 0.258819045102525
outer loop
vertex 600.025645398894 94.1063597481781 3.98236190979491
vertex 599.957497051473 91.5570639036944 4.49999999999995
vertex 600.025645398894 91.5570639036944 3.98236190979491
endloop
endfacet
facet normal 1.0 0.0 -1.6931108801729e-016
outer loop
vertex 599.957497051473 91.5570639036944 4.49999999999995
vertex 600.025645398894 94.1063597481781 3.98236190979491
vertex 599.957497051473 94.1063597481781 4.49999999999995
endloop
endfacet
facet normal 1.0 0.0 -1.6931108801729e-016
outer loop
vertex 599.957497051473 94.1063597481781 4.49999999999995
vertex 600.025645398894 91.5570639036944 5.01763809020499
vertex 599.957497051473 91.5570639036944 4.49999999999995
endloop
endfacet
facet normal 0.965925826289067 0.0 -0.258819045102525
outer loop
vertex 600.025645398894 91.5570639036944 5.01763809020499
vertex 599.957497051473 94.1063597481781 4.49999999999995
vertex 600.025645398894 94.1063597481781 5.01763809020499
endloop
endfacet
facet normal 0.965925826289067 0.0 -0.258819045102525
outer loop
vertex 600.025645398894 94.1063597481781 5.01763809020499
vertex 600.225446243904 91.5570639036944 5.49999999999995
vertex 600.025645398894 91.5570639036944 5.01763809020499
endloop
endfacet
facet normal 0.866025403784426 0.0 -0.500000000000022
outer loop
vertex 600.225446243904 91.5570639036944 5.49999999999995
vertex 600.025645398894 94.1063597481781 5.01763809020499
vertex 600.225446243904 94.1063597481781 5.49999999999995
endloop
endfacet
facet normal 0.866025403784426 0.0 -0.500000000000022
outer loop
vertex 600.225446243904 94.1063597481781 5.49999999999995
vertex 600.543283489099 91.5570639036944 5.91421356237305
vertex 600.225446243904 91.5570639036944 5.49999999999995
endloop
endfacet
facet normal 0.707106781186497 0.0 -0.707106781186598
outer loop
vertex 600.543283489099 91.5570639036944 5.91421356237305
vertex 600.225446243904 94.1063597481781 5.49999999999995
vertex 600.543283489099 94.1063597481781 5.91421356237305
endloop
endfacet
facet normal 0.499999999999951 0.0 -0.866025403784467
outer loop
vertex 600.957497051473 94.1063597481781 6.23205080756883
vertex 600.543283489099 91.5570639036944 5.91421356237305
vertex 600.543283489099 94.1063597481781 5.91421356237305
endloop
endfacet
facet normal 0.707106781186497 0.0 -0.707106781186598
outer loop
vertex 600.543283489099 91.5570639036944 5.91421356237305
vertex 600.957497051473 94.1063597481781 6.23205080756883
vertex 600.957497051473 91.5570639036944 6.23205080756883
endloop
endfacet
facet normal 0.258819045102543 0.0 -0.965925826289063
outer loop
vertex 601.439858961268 94.1063597481781 6.43185165257808
vertex 600.957497051473 91.5570639036944 6.23205080756883
vertex 600.957497051473 94.1063597481781 6.23205080756883
endloop
endfacet
facet normal 0.499999999999951 0.0 -0.866025403784467
outer loop
vertex 600.957497051473 91.5570639036944 6.23205080756883
vertex 601.439858961268 94.1063597481781 6.43185165257808
vertex 601.439858961268 91.5570639036944 6.43185165257808
endloop
endfacet
facet normal 0.0 0.0 -1.0
outer loop
vertex 601.957497051473 94.1063597481781 6.49999999999995
vertex 601.439858961268 91.5570639036944 6.43185165257808
vertex 601.439858961268 94.1063597481781 6.43185165257808
endloop
endfacet
facet normal 0.258819045102543 0.0 -0.965925826289063
outer loop
vertex 601.439858961268 91.5570639036944 6.43185165257808
vertex 601.957497051473 94.1063597481781 6.49999999999995
vertex 601.957497051473 91.5570639036944 6.49999999999995
endloop
endfacet
facet normal -0.258819045102543 0.0 -0.965925826289063
outer loop
vertex 602.475135141678 94.1063597481781 6.43185165257808
vertex 601.957497051473 91.5570639036944 6.49999999999995
vertex 601.957497051473 94.1063597481781 6.49999999999995
endloop
endfacet
facet normal 0.0 0.0 -1.0
outer loop
vertex 601.957497051473 91.5570639036944 6.49999999999995
vertex 602.475135141678 94.1063597481781 6.43185165257808
vertex 602.475135141678 91.5570639036944 6.43185165257808
endloop
endfacet
facet normal -0.499999999999949 0.0 -0.866025403784468
outer loop
vertex 602.957497051473 94.1063597481781 6.23205080756883
vertex 602.475135141678 91.5570639036944 6.43185165257808
vertex 602.475135141678 94.1063597481781 6.43185165257808
endloop
endfacet
facet normal -0.258819045102543 0.0 -0.965925826289063
outer loop
vertex 602.475135141678 91.5570639036944 6.43185165257808
vertex 602.957497051473 94.1063597481781 6.23205080756883
vertex 602.957497051473 91.5570639036944 6.23205080756883
endloop
endfacet
facet normal -0.707106781186497 0.0 -0.707106781186599
outer loop
vertex 603.371710613846 94.1063597481781 5.91421356237305
vertex 602.957497051473 91.5570639036944 6.23205080756883
vertex 602.957497051473 94.1063597481781 6.23205080756883
endloop
endfacet
facet normal -0.499999999999949 0.0 -0.866025403784468
outer loop
vertex 602.957497051473 91.5570639036944 6.23205080756883
vertex 603.371710613846 94.1063597481781 5.91421356237305
vertex 603.371710613846 91.5570639036944 5.91421356237305
endloop
endfacet
facet normal -0.707106781186497 0.0 -0.707106781186599
outer loop
vertex 603.371710613846 94.1063597481781 5.91421356237305
vertex 603.689547859042 91.5570639036944 5.49999999999995
vertex 603.371710613846 91.5570639036944 5.91421356237305
endloop
endfacet
facet normal -0.866025403784426 0.0 -0.500000000000022
outer loop
vertex 603.689547859042 91.5570639036944 5.49999999999995
vertex 603.371710613846 94.1063597481781 5.91421356237305
vertex 603.689547859042 94.1063597481781 5.49999999999995
endloop
endfacet
facet normal -0.866025403784426 0.0 -0.500000000000022
outer loop
vertex 603.689547859042 94.1063597481781 5.49999999999995
vertex 603.889348704051 91.5570639036944 5.017638090205
vertex 603.689547859042 91.5570639036944 5.49999999999995
endloop
endfacet
facet normal -0.965925826289067 0.0 -0.258819045102526
outer loop
vertex 603.889348704051 91.5570639036944 5.017638090205
vertex 603.689547859042 94.1063597481781 5.49999999999995
vertex 603.889348704051 94.1063597481781 5.017638090205
endloop
endfacet
facet normal -0.965925826289067 0.0 -0.258819045102526
outer loop
vertex 603.889348704051 94.1063597481781 5.017638090205
vertex 603.957497051473 91.5570639036944 4.49999999999995
vertex 603.889348704051 91.5570639036944 5.017638090205
endloop
endfacet
facet normal -1.0 0.0 1.78222197912937e-016
outer loop
vertex 603.957497051473 91.5570639036944 4.49999999999995
vertex 603.889348704051 94.1063597481781 5.017638090205
vertex 603.957497051473 94.1063597481781 4.49999999999995
endloop
endfacet
facet normal 0.0 0.0 -1.0
outer loop
vertex 588.918655136393 84.046063860393 0.0
vertex 607.957497051473 83.9063597481782 0.0
vertex 587.857497051472 83.9063597481782 0.0
endloop
endfacet
facet normal 0.0 0.0 -1.0
outer loop
vertex 607.957497051473 83.9063597481782 0.0
vertex 588.918655136393 84.046063860393 0.0
vertex 589.907497051472 84.455655592662 0.0
endloop
endfacet
facet normal 0.0 0.0 -1.0
outer loop
vertex 607.957497051473 83.9063597481782 0.0
vertex 589.907497051472 84.455655592662 0.0
vertex 607.957497051473 84.455655592662 0.0
endloop
endfacet
facet normal 0.866025403784426 0.0 0.500000000000023
outer loop
vertex 600.225446243904 84.4556555926621 3.5
vertex 600.025645398894 81.9063597481782 3.98236190979496
vertex 600.225446243904 81.9063597481782 3.5
endloop
endfacet
facet normal 0.965925826289067 0.0 0.258819045102525
outer loop
vertex 600.025645398894 81.9063597481782 3.98236190979496
vertex 600.225446243904 84.4556555926621 3.5
vertex 600.025645398894 84.4556555926621 3.98236190979496
endloop
endfacet
facet normal 0.965925826289067 0.0 0.258819045102525
outer loop
vertex 600.025645398894 84.4556555926621 3.98236190979496
vertex 599.957497051473 81.9063597481782 4.5
vertex 600.025645398894 81.9063597481782 3.98236190979496
endloop
endfacet
facet normal 1.0 0.0 -1.6931108801729e-016
outer loop
vertex 599.957497051473 81.9063597481782 4.5
vertex 600.025645398894 84.4556555926621 3.98236190979496
vertex 599.957497051473 84.4556555926621 4.5
endloop
endfacet
facet normal 1.0 0.0 -1.6931108801729e-016
outer loop
vertex 599.957497051473 84.4556555926621 4.5
vertex 600.025645398894 81.9063597481782 5.01763809020504
vertex 599.957497051473 81.9063597481782 4.5
endloop
endfacet
facet normal 0.965925826289067 0.0 -0.258819045102525
outer loop
vertex 600.025645398894 81.9063597481782 5.01763809020504
vertex 599.957497051473 84.4556555926621 4.5
vertex 600.025645398894 84.4556555926621 5.01763809020504
endloop
endfacet
facet normal 0.965925826289067 0.0 -0.258819045102525
outer loop
vertex 600.025645398894 84.4556555926621 5.01763809020504
vertex 600.225446243904 81.9063597481782 5.49999999999999
vertex 600.025645398894 81.9063597481782 5.01763809020504
endloop
endfacet
facet normal 0.866025403784426 0.0 -0.500000000000022
outer loop
vertex 600.225446243904 81.9063597481782 5.49999999999999
vertex 600.025645398894 84.4556555926621 5.01763809020504
vertex 600.225446243904 84.4556555926621 5.49999999999999
endloop
endfacet
facet normal 0.866025403784426 0.0 -0.500000000000022
outer loop
vertex 600.225446243904 84.4556555926621 5.49999999999999
vertex 600.543283489099 81.9063597481782 5.91421356237309
vertex 600.225446243904 81.9063597481782 5.49999999999999
endloop
endfacet
facet normal 0.707106781186497 0.0 -0.707106781186598
outer loop
vertex 600.543283489099 81.9063597481782 5.91421356237309
vertex 600.225446243904 84.4556555926621 5.49999999999999
vertex 600.543283489099 84.4556555926621 5.91421356237309
endloop
endfacet
facet normal 0.499999999999951 0.0 -0.866025403784467
outer loop
vertex 600.957497051473 84.4556555926621 6.23205080756887
vertex 600.543283489099 81.9063597481782 5.91421356237309
vertex 600.543283489099 84.4556555926621 5.91421356237309
endloop
endfacet
facet normal 0.707106781186497 0.0 -0.707106781186598
outer loop
vertex 600.543283489099 81.9063597481782 5.91421356237309
vertex 600.957497051473 84.4556555926621 6.23205080756887
vertex 600.957497051473 81.9063597481782 6.23205080756887
endloop
endfacet
facet normal 0.258819045102543 0.0 -0.965925826289063
outer loop
vertex 601.439858961268 84.4556555926621 6.43185165257813
vertex 600.957497051473 81.9063597481782 6.23205080756887
vertex 600.957497051473 84.4556555926621 6.23205080756887
endloop
endfacet
facet normal 0.499999999999951 0.0 -0.866025403784467
outer loop
vertex 600.957497051473 81.9063597481782 6.23205080756887
vertex 601.439858961268 84.4556555926621 6.43185165257813
vertex 601.439858961268 81.9063597481782 6.43185165257813
endloop
endfacet
facet normal 0.0 0.0 -1.0
outer loop
vertex 601.957497051473 84.4556555926621 6.49999999999999
vertex 601.439858961268 81.9063597481782 6.43185165257813
vertex 601.439858961268 84.4556555926621 6.43185165257813
endloop
endfacet
facet normal 0.258819045102543 0.0 -0.965925826289063
outer loop
vertex 601.439858961268 81.9063597481782 6.43185165257813
vertex 601.957497051473 84.4556555926621 6.49999999999999
vertex 601.957497051473 81.9063597481782 6.49999999999999
endloop
endfacet
facet normal -0.258819045102543 0.0 -0.965925826289063
outer loop
vertex 602.475135141678 84.4556555926621 6.43185165257813
vertex 601.957497051473 81.9063597481782 6.49999999999999
vertex 601.957497051473 84.4556555926621 6.49999999999999
endloop
endfacet
facet normal 0.0 0.0 -1.0
outer loop
vertex 601.957497051473 81.9063597481782 6.49999999999999
vertex 602.475135141678 84.4556555926621 6.43185165257813
vertex 602.475135141678 81.9063597481782 6.43185165257813
endloop
endfacet
facet normal -0.499999999999949 0.0 -0.866025403784468
outer loop
vertex 602.957497051473 84.4556555926621 6.23205080756887
vertex 602.475135141678 81.9063597481782 6.43185165257813
vertex 602.475135141678 84.4556555926621 6.43185165257813
endloop
endfacet
facet normal -0.258819045102543 0.0 -0.965925826289063
outer loop
vertex 602.475135141678 81.9063597481782 6.43185165257813
vertex 602.957497051473 84.4556555926621 6.23205080756887
vertex 602.957497051473 81.9063597481782 6.23205080756887
endloop
endfacet
facet normal -0.707106781186497 0.0 -0.707106781186599
outer loop
vertex 603.371710613846 84.4556555926621 5.91421356237309
vertex 602.957497051473 81.9063597481782 6.23205080756887
vertex 602.957497051473 84.4556555926621 6.23205080756887
endloop
endfacet
facet normal -0.499999999999949 0.0 -0.866025403784468
outer loop
vertex 602.957497051473 81.9063597481782 6.23205080756887
vertex 603.371710613846 84.4556555926621 5.91421356237309
vertex 603.371710613846 81.9063597481782 5.91421356237309
endloop
endfacet
facet normal -0.707106781186497 0.0 -0.707106781186599
outer loop
vertex 603.371710613846 84.4556555926621 5.91421356237309
vertex 603.689547859042 81.9063597481782 5.49999999999999
vertex 603.371710613846 81.9063597481782 5.91421356237309
endloop
endfacet
facet normal -0.866025403784426 0.0 -0.500000000000022
outer loop
vertex 603.689547859042 81.9063597481782 5.49999999999999
vertex 603.371710613846 84.4556555926621 5.91421356237309
vertex 603.689547859042 84.4556555926621 5.49999999999999
endloop
endfacet
facet normal -0.866025403784426 0.0 -0.500000000000022
outer loop
vertex 603.689547859042 84.4556555926621 5.49999999999999
vertex 603.889348704051 81.9063597481782 5.01763809020504
vertex 603.689547859042 81.9063597481782 5.49999999999999
endloop
endfacet
facet normal -0.965925826289067 0.0 -0.258819045102526
outer loop
vertex 603.889348704051 81.9063597481782 5.01763809020504
vertex 603.689547859042 84.4556555926621 5.49999999999999
vertex 603.889348704051 84.4556555926621 5.01763809020504
endloop
endfacet
facet normal -0.965925826289067 0.0 -0.258819045102526
outer loop
vertex 603.889348704051 84.4556555926621 5.01763809020504
vertex 603.957497051473 81.9063597481782 4.5
vertex 603.889348704051 81.9063597481782 5.01763809020504
endloop
endfacet
facet normal -1.0 0.0 1.78222197912937e-016
outer loop
vertex 603.957497051473 81.9063597481782 4.5
vertex 603.889348704051 84.4556555926621 5.01763809020504
vertex 603.957497051473 84.4556555926621 4.5
endloop
endfacet
facet normal -1.0 0.0 1.78222197912937e-016
outer loop
vertex 603.957497051473 84.4556555926621 4.5
vertex 603.889348704051 81.9063597481782 3.98236190979496
vertex 603.957497051473 81.9063597481782 4.5
endloop
endfacet
facet normal -0.965925826289067 0.0 0.258819045102525
outer loop
vertex 603.889348704051 81.9063597481782 3.98236190979496
vertex 603.957497051473 84.4556555926621 4.5
vertex 603.889348704051 84.4556555926621 3.98236190979496
endloop
endfacet
facet normal -0.965925826289067 0.0 0.258819045102525
outer loop
vertex 603.889348704051 84.4556555926621 3.98236190979496
vertex 603.689547859042 81.9063597481782 3.5
vertex 603.889348704051 81.9063597481782 3.98236190979496
endloop
endfacet
facet normal -0.866025403784426 0.0 0.500000000000023
outer loop
vertex 603.689547859042 81.9063597481782 3.5
vertex 603.889348704051 84.4556555926621 3.98236190979496
vertex 603.689547859042 84.4556555926621 3.5
endloop
endfacet
facet normal -0.866025403784426 0.0 0.500000000000023
outer loop
vertex 603.689547859042 84.4556555926621 3.5
vertex 603.371710613846 81.9063597481782 3.08578643762691
vertex 603.689547859042 81.9063597481782 3.5
endloop
endfacet
facet normal -0.707106781186496 0.0 0.707106781186599
outer loop
vertex 603.371710613846 81.9063597481782 3.08578643762691
vertex 603.689547859042 84.4556555926621 3.5
vertex 603.371710613846 84.4556555926621 3.08578643762691
endloop
endfacet
facet normal -0.707106781186496 0.0 0.707106781186599
outer loop
vertex 603.371710613846 81.9063597481782 3.08578643762691
vertex 602.957497051473 84.4556555926621 2.76794919243112
vertex 602.957497051473 81.9063597481782 2.76794919243112
endloop
endfacet
facet normal -0.499999999999952 0.0 0.866025403784467
outer loop
vertex 602.957497051473 84.4556555926621 2.76794919243112
vertex 603.371710613846 81.9063597481782 3.08578643762691
vertex 603.371710613846 84.4556555926621 3.08578643762691
endloop
endfacet
facet normal -0.499999999999952 0.0 0.866025403784467
outer loop
vertex 602.957497051473 81.9063597481782 2.76794919243112
vertex 602.475135141678 84.4556555926621 2.56814834742187
vertex 602.475135141678 81.9063597481782 2.56814834742187
endloop
endfacet
facet normal -0.258819045102543 0.0 0.965925826289062
outer loop
vertex 602.475135141678 84.4556555926621 2.56814834742187
vertex 602.957497051473 81.9063597481782 2.76794919243112
vertex 602.957497051473 84.4556555926621 2.76794919243112
endloop
endfacet
endsolid VertX-v07
