solid Orca_manu x-carriage v03
facet normal 7.6703329816733e-014 -1.0 -6.32407939349363e-010
outer loop
vertex 44.1673048123635 4.10836487367802 7.63783063834714e-009
vertex 24.1673048067603 4.108364866329 4.00000000177416
vertex 24.167304807201 4.10836487367649 0.0
endloop
endfacet
facet normal 7.6703329816733e-014 -1.0 -6.32407939349363e-010
outer loop
vertex 24.1673048067603 4.108364866329 4.00000000177416
vertex 44.1673048123635 4.10836487367802 7.63783063834714e-009
vertex 44.1673048119228 4.10836486633053 4.00000000941199
endloop
endfacet
facet normal -3.22685764303843e-009 1.0 -4.18545479233901e-009
outer loop
vertex 35.5623255592902 7.03401743266977 3.99999998324185
vertex 37.7722840531482 7.03401742724462 0.999999989963113
vertex 35.5623255607902 7.0340174201134 0.999999983241852
endloop
endfacet
facet normal -3.22685764303843e-009 1.0 -4.18545479233901e-009
outer loop
vertex 37.7722840531482 7.03401742724462 0.999999989963113
vertex 35.5623255592902 7.03401743266977 3.99999998324185
vertex 37.7722840516482 7.03401743980099 3.99999998996311
endloop
endfacet
facet normal 0.939692619682237 0.342020146357981 -9.61673458037183e-010
outer loop
vertex 37.7722840531482 7.03401742724462 0.999999989963113
vertex 38.20904833664 5.83401744121025 3.99999999121034
vertex 38.20904833814 5.83401742865389 0.999999991210339
endloop
endfacet
facet normal 0.939692619682237 0.342020146357981 -9.61673458037183e-010
outer loop
vertex 38.20904833664 5.83401744121025 3.99999999121034
vertex 37.7722840531482 7.03401742724462 0.999999989963113
vertex 37.7722840516482 7.03401743980099 3.99999998996311
endloop
endfacet
facet normal -2.20737922118023e-008 1.0 -4.18545480176228e-009
outer loop
vertex 38.20904833664 5.83401744121025 3.99999999121034
vertex 40.1255612831423 5.8340174709586 0.99999999528847
vertex 38.20904833814 5.83401742865389 0.999999991210339
endloop
endfacet
facet normal -2.20737922118023e-008 1.0 -4.18545480176228e-009
outer loop
vertex 40.1255612831423 5.8340174709586 0.99999999528847
vertex 38.20904833664 5.83401744121025 3.99999999121034
vertex 40.1255612816423 5.83401748351496 3.99999999528847
endloop
endfacet
facet normal 1.9391161110484e-010 1.0 6.32407939385863e-010
outer loop
vertex 24.1673048065455 10.0340173116594 3.99999999446402
vertex 44.1673048125574 10.0340173109432 8.27023857773301e-009
vertex 24.1673048073949 10.0340173148214 6.44439005642754e-009
endloop
endfacet
facet normal 1.9391161110484e-010 1.0 6.32407939385863e-010
outer loop
vertex 44.1673048125574 10.0340173109432 8.27023857773301e-009
vertex 24.1673048065455 10.0340173116594 3.99999999446402
vertex 44.1673048117079 10.0340173077812 3.99999999628987
endloop
endfacet
facet normal -0.939692618479992 0.342020149661123 -1.90134627538423e-009
outer loop
vertex 40.1255612816423 5.83401748351496 3.99999999528847
vertex 40.5623255607902 7.03401743624758 0.999999998455763
vertex 40.1255612831423 5.8340174709586 0.99999999528847
endloop
endfacet
facet normal -0.939692618479992 0.342020149661123 -1.90134627538423e-009
outer loop
vertex 40.5623255607902 7.03401743624758 0.999999998455763
vertex 40.1255612816423 5.83401748351496 3.99999999528847
vertex 40.5623255592902 7.03401744880394 3.99999999845576
endloop
endfacet
facet normal -3.22685764304349e-009 1.0 -4.18545479233901e-009
outer loop
vertex 40.5623255592902 7.03401744880394 3.99999999845576
vertex 42.7722840531481 7.0340174433788 1.00000000517435
vertex 40.5623255607902 7.03401743624758 0.999999998455763
endloop
endfacet
facet normal -3.22685764304349e-009 1.0 -4.18545479233901e-009
outer loop
vertex 42.7722840531481 7.0340174433788 1.00000000517435
vertex 40.5623255592902 7.03401744880394 3.99999999845576
vertex 42.7722840516482 7.03401745593517 4.00000000517435
endloop
endfacet
facet normal 0.939692619682243 0.342020146357964 -9.61673458037109e-010
outer loop
vertex 42.7722840531481 7.0340174433788 1.00000000517435
vertex 43.2090483366399 5.83401745734461 4.00000000643171
vertex 43.2090483381399 5.83401744478825 1.00000000643171
endloop
endfacet
facet normal 0.939692619682243 0.342020146357964 -9.61673458037109e-010
outer loop
vertex 43.2090483366399 5.83401745734461 4.00000000643171
vertex 42.7722840531481 7.0340174433788 1.00000000517435
vertex 42.7722840516482 7.03401745593517 4.00000000517435
endloop
endfacet
facet normal -3.99845289236059e-010 -4.84461512637438e-009 1.0
outer loop
vertex 24.1673048080535 9.03401733103781 1.00000000581198
vertex 25.5623255582089 7.03401738784486 0.999999998455769
vertex 44.1673048132548 9.03401732715961 1.00000000763783
endloop
endfacet
facet normal -3.99845289236059e-010 -4.84461512637438e-009 1.0
outer loop
vertex 25.5623255582089 7.03401738784486 0.999999998455769
vertex 24.1673048080535 9.03401733103781 1.00000000581198
vertex 24.1673048082602 5.83401738334334 0.99999999413648
endloop
endfacet
facet normal -3.99845289236059e-010 -4.84461512637438e-009 1.0
outer loop
vertex 25.5623255582089 7.03401738784486 0.999999998455769
vertex 24.1673048082602 5.83401738334334 0.99999999413648
vertex 25.125561280561 5.83401742255579 0.99999999528847
endloop
endfacet
facet normal -3.99845289236059e-010 -4.84461512637438e-009 1.0
outer loop
vertex 44.1673048132548 9.03401732715961 1.00000000763783
vertex 25.5623255582089 7.03401738784486 0.999999998455769
vertex 27.7722840505669 7.03401739497609 1.00000000517434
endloop
endfacet
facet normal -3.99845289236059e-010 -4.84461512637438e-009 1.0
outer loop
vertex 44.1673048132548 9.03401732715961 1.00000000763783
vertex 27.7722840505669 7.03401739497609 1.00000000517434
vertex 30.56232556079 7.03401740397904 0.999999968048775
endloop
endfacet
facet normal -3.99845289236059e-010 -4.84461512637438e-009 1.0
outer loop
vertex 30.56232556079 7.03401740397904 0.999999968048775
vertex 27.7722840505669 7.03401739497609 1.00000000517434
vertex 28.2090483355586 5.83401739638553 1.00000000643172
endloop
endfacet
facet normal -3.99845289236059e-010 -4.84461512637438e-009 1.0
outer loop
vertex 30.56232556079 7.03401740397904 0.999999968048775
vertex 28.2090483355586 5.83401739638553 1.00000000643172
vertex 30.1255612831424 5.83401743869006 0.999999964855369
endloop
endfacet
facet normal -3.99845289236059e-010 -4.84461512637438e-009 1.0
outer loop
vertex 44.1673048132548 9.03401732715961 1.00000000763783
vertex 30.56232556079 7.03401740397904 0.999999968048775
vertex 32.7722840531481 7.03401741111026 0.999999974772202
endloop
endfacet
facet normal -3.99845289236059e-010 -4.84461512637438e-009 1.0
outer loop
vertex 44.1673048132548 9.03401732715961 1.00000000763783
vertex 32.7722840531481 7.03401741111026 0.999999974772202
vertex 35.5623255607902 7.0340174201134 0.999999983241852
endloop
endfacet
facet normal -3.99845289236059e-010 -4.84461512637438e-009 1.0
outer loop
vertex 35.5623255607902 7.0340174201134 0.999999983241852
vertex 32.7722840531481 7.03401741111026 0.999999974772202
vertex 33.2090483381399 5.83401741251962 0.999999976005407
endloop
endfacet
facet normal -3.99845289236059e-010 -4.84461512637438e-009 1.0
outer loop
vertex 35.5623255607902 7.0340174201134 0.999999983241852
vertex 33.2090483381399 5.83401741251962 0.999999976005407
vertex 35.1255612831423 5.83401745482424 0.999999980063392
endloop
endfacet
facet normal -3.99845289236059e-010 -4.84461512637438e-009 1.0
outer loop
vertex 44.1673048132548 9.03401732715961 1.00000000763783
vertex 35.5623255607902 7.0340174201134 0.999999983241852
vertex 37.7722840531482 7.03401742724462 0.999999989963113
endloop
endfacet
facet normal -3.99845289236059e-010 -4.84461512637438e-009 1.0
outer loop
vertex 44.1673048132548 9.03401732715961 1.00000000763783
vertex 37.7722840531482 7.03401742724462 0.999999989963113
vertex 38.20904833814 5.83401742865389 0.999999991210339
endloop
endfacet
facet normal -3.99845289236059e-010 -4.84461512637438e-009 1.0
outer loop
vertex 44.1673048132548 9.03401732715961 1.00000000763783
vertex 38.20904833814 5.83401742865389 0.999999991210339
vertex 40.5623255607902 7.03401743624758 0.999999998455763
endloop
endfacet
facet normal -3.99845289236059e-010 -4.84461512637438e-009 1.0
outer loop
vertex 40.5623255607902 7.03401743624758 0.999999998455763
vertex 38.20904833814 5.83401742865389 0.999999991210339
vertex 40.1255612831423 5.8340174709586 0.99999999528847
endloop
endfacet
facet normal -3.99845289236059e-010 -4.84461512637438e-009 1.0
outer loop
vertex 44.1673048132548 9.03401732715961 1.00000000763783
vertex 40.5623255607902 7.03401743624758 0.999999998455763
vertex 42.7722840531481 7.0340174433788 1.00000000517435
endloop
endfacet
facet normal -3.99845289236059e-010 -4.84461512637438e-009 1.0
outer loop
vertex 44.1673048132548 9.03401732715961 1.00000000763783
vertex 42.7722840531481 7.0340174433788 1.00000000517435
vertex 43.2090483381399 5.83401744478825 1.00000000643171
endloop
endfacet
facet normal -3.99845289236059e-010 -4.84461512637438e-009 1.0
outer loop
vertex 44.1673048132548 9.03401732715961 1.00000000763783
vertex 43.2090483381399 5.83401744478825 1.00000000643171
vertex 44.1673048104407 5.83401748400065 1.00000000759073
endloop
endfacet
facet normal -4.09205699093367e-008 0.999999999999999 -4.18545481118547e-009
outer loop
vertex 43.2090483366399 5.83401745734461 4.00000000643171
vertex 44.1673048104407 5.83401748400065 1.00000000759073
vertex 43.2090483381399 5.83401744478825 1.00000000643171
endloop
endfacet
facet normal -4.09205699093367e-008 0.999999999999999 -4.18545481118547e-009
outer loop
vertex 44.1673048104407 5.83401748400065 1.00000000759073
vertex 43.2090483366399 5.83401745734461 4.00000000643171
vertex 44.1673048089407 5.83401749655701 4.00000000759073
endloop
endfacet
facet normal -9.12924316461785e-011 -1.77015707878899e-021 1.0
outer loop
vertex 44.1673048117467 9.03401730778115 3.99999999565746
vertex 24.1673048065455 10.0340173116594 3.99999999446402
vertex 24.1673048065455 9.03401731165935 3.99999999383161
endloop
endfacet
facet normal -9.12924316461785e-011 -1.77015707878899e-021 1.0
outer loop
vertex 24.1673048065455 10.0340173116594 3.99999999446402
vertex 44.1673048117467 9.03401730778115 3.99999999565746
vertex 44.1673048117079 10.0340173077812 3.99999999628987
endloop
endfacet
facet normal -4.99989456361146e-010 4.18545479072561e-009 1.0
outer loop
vertex 44.1673048119228 4.10836486633053 4.00000000941199
vertex 24.1673048067603 5.83401739589971 3.99999999413648
vertex 24.1673048067603 4.108364866329 4.00000000177416
endloop
endfacet
facet normal -4.99989456361146e-010 4.18545479072561e-009 1.0
outer loop
vertex 24.1673048067603 5.83401739589971 3.99999999413648
vertex 44.1673048119228 4.10836486633053 4.00000000941199
vertex 25.1255612790611 5.83401743511215 3.99999999528847
endloop
endfacet
facet normal -4.99989456361146e-010 4.18545479072561e-009 1.0
outer loop
vertex 25.1255612790611 5.83401743511215 3.99999999528847
vertex 44.1673048119228 4.10836486633053 4.00000000941199
vertex 28.2090483340586 5.83401740894189 4.00000000643172
endloop
endfacet
facet normal -4.99989456361146e-010 4.18545479072561e-009 1.0
outer loop
vertex 25.1255612790611 5.83401743511215 3.99999999528847
vertex 28.2090483340586 5.83401740894189 4.00000000643172
vertex 25.5623255567089 7.03401740040123 3.99999999845577
endloop
endfacet
facet normal -4.99989456361146e-010 4.18545479072561e-009 1.0
outer loop
vertex 25.5623255567089 7.03401740040123 3.99999999845577
vertex 28.2090483340586 5.83401740894189 4.00000000643172
vertex 27.7722840490669 7.03401740753245 4.00000000517434
endloop
endfacet
facet normal -4.99989456361146e-010 4.18545479072561e-009 1.0
outer loop
vertex 28.2090483340586 5.83401740894189 4.00000000643172
vertex 44.1673048119228 4.10836486633053 4.00000000941199
vertex 30.1255612816424 5.83401745124642 3.99999996485537
endloop
endfacet
facet normal -4.99989456361146e-010 4.18545479072561e-009 1.0
outer loop
vertex 30.1255612816424 5.83401745124642 3.99999996485537
vertex 44.1673048119228 4.10836486633053 4.00000000941199
vertex 33.2090483366399 5.83401742507598 3.99999997600541
endloop
endfacet
facet normal -4.99989456361146e-010 4.18545479072561e-009 1.0
outer loop
vertex 30.1255612816424 5.83401745124642 3.99999996485537
vertex 33.2090483366399 5.83401742507598 3.99999997600541
vertex 30.5623255592901 7.03401741653541 3.99999996804878
endloop
endfacet
facet normal -4.99989456361146e-010 4.18545479072561e-009 1.0
outer loop
vertex 30.5623255592901 7.03401741653541 3.99999996804878
vertex 33.2090483366399 5.83401742507598 3.99999997600541
vertex 32.7722840516481 7.03401742366663 3.9999999747722
endloop
endfacet
facet normal -4.99989456361146e-010 4.18545479072561e-009 1.0
outer loop
vertex 33.2090483366399 5.83401742507598 3.99999997600541
vertex 44.1673048119228 4.10836486633053 4.00000000941199
vertex 35.1255612816423 5.8340174673806 3.99999998006339
endloop
endfacet
facet normal -4.99989456361146e-010 4.18545479072561e-009 1.0
outer loop
vertex 35.1255612816423 5.8340174673806 3.99999998006339
vertex 44.1673048119228 4.10836486633053 4.00000000941199
vertex 38.20904833664 5.83401744121025 3.99999999121034
endloop
endfacet
facet normal -4.99989456361146e-010 4.18545479072561e-009 1.0
outer loop
vertex 35.1255612816423 5.8340174673806 3.99999998006339
vertex 38.20904833664 5.83401744121025 3.99999999121034
vertex 35.5623255592902 7.03401743266977 3.99999998324185
endloop
endfacet
facet normal -4.99989456361146e-010 4.18545479072561e-009 1.0
outer loop
vertex 35.5623255592902 7.03401743266977 3.99999998324185
vertex 38.20904833664 5.83401744121025 3.99999999121034
vertex 37.7722840516482 7.03401743980099 3.99999998996311
endloop
endfacet
facet normal -4.99989456361146e-010 4.18545479072561e-009 1.0
outer loop
vertex 38.20904833664 5.83401744121025 3.99999999121034
vertex 44.1673048119228 4.10836486633053 4.00000000941199
vertex 40.1255612816423 5.83401748351496 3.99999999528847
endloop
endfacet
facet normal -4.99989456361146e-010 4.18545479072561e-009 1.0
outer loop
vertex 40.1255612816423 5.83401748351496 3.99999999528847
vertex 44.1673048119228 4.10836486633053 4.00000000941199
vertex 40.5623255592902 7.03401744880394 3.99999999845576
endloop
endfacet
facet normal -4.99989456361146e-010 4.18545479072561e-009 1.0
outer loop
vertex 40.5623255592902 7.03401744880394 3.99999999845576
vertex 44.1673048119228 4.10836486633053 4.00000000941199
vertex 43.2090483366399 5.83401745734461 4.00000000643171
endloop
endfacet
facet normal -4.99989456361146e-010 4.18545479072561e-009 1.0
outer loop
vertex 40.5623255592902 7.03401744880394 3.99999999845576
vertex 43.2090483366399 5.83401745734461 4.00000000643171
vertex 42.7722840516482 7.03401745593517 4.00000000517435
endloop
endfacet
facet normal -4.99989456361146e-010 4.18545479072561e-009 1.0
outer loop
vertex 43.2090483366399 5.83401745734461 4.00000000643171
vertex 44.1673048119228 4.10836486633053 4.00000000941199
vertex 44.1673048089407 5.83401749655701 4.00000000759073
endloop
endfacet
facet normal -0.939692618480008 0.342020149661078 -1.90134627538405e-009
outer loop
vertex 35.1255612816423 5.8340174673806 3.99999998006339
vertex 35.5623255607902 7.0340174201134 0.999999983241852
vertex 35.1255612831423 5.83401745482424 0.999999980063392
endloop
endfacet
facet normal -0.939692618480008 0.342020149661078 -1.90134627538405e-009
outer loop
vertex 35.5623255607902 7.0340174201134 0.999999983241852
vertex 35.1255612816423 5.8340174673806 3.99999998006339
vertex 35.5623255592902 7.03401743266977 3.99999998324185
endloop
endfacet
facet normal -2.20737451268885e-008 1.0 -4.18545480176225e-009
outer loop
vertex 33.2090483366399 5.83401742507598 3.99999997600541
vertex 35.1255612831423 5.83401745482424 0.999999980063392
vertex 33.2090483381399 5.83401741251962 0.999999976005407
endloop
endfacet
facet normal -2.20737451268885e-008 1.0 -4.18545480176225e-009
outer loop
vertex 35.1255612831423 5.83401745482424 0.999999980063392
vertex 33.2090483366399 5.83401742507598 3.99999997600541
vertex 35.1255612816423 5.8340174673806 3.99999998006339
endloop
endfacet
facet normal 1.0 -9.02863324866318e-011 3.18562742084647e-010
outer loop
vertex 44.1673048123635 4.10836487367802 7.63783063834714e-009
vertex 44.1673048089407 5.83401749655701 4.00000000759073
vertex 44.1673048119228 4.10836486633053 4.00000000941199
endloop
endfacet
facet normal 1.0 -9.02863324866318e-011 3.18562742084647e-010
outer loop
vertex 44.1673048089407 5.83401749655701 4.00000000759073
vertex 44.1673048123635 4.10836487367802 7.63783063834714e-009
vertex 44.1673048104407 5.83401748400065 1.00000000759073
endloop
endfacet
facet normal 1.0 -9.02863324866318e-011 3.18562742084647e-010
outer loop
vertex 44.1673048125574 10.0340173109432 8.27023857773301e-009
vertex 44.1673048104407 5.83401748400065 1.00000000759073
vertex 44.1673048123635 4.10836487367802 7.63783063834714e-009
endloop
endfacet
facet normal 1.0 -9.02863324866318e-011 3.18562742084647e-010
outer loop
vertex 44.1673048104407 5.83401748400065 1.00000000759073
vertex 44.1673048125574 10.0340173109432 8.27023857773301e-009
vertex 44.1673048132548 9.03401732715961 1.00000000763783
endloop
endfacet
facet normal 1.0 -9.02863324866318e-011 3.18562742084647e-010
outer loop
vertex 44.1673048132548 9.03401732715961 1.00000000763783
vertex 44.1673048125574 10.0340173109432 8.27023857773301e-009
vertex 44.1673048117079 10.0340173077812 3.99999999628987
endloop
endfacet
facet normal 1.0 -9.02863324866318e-011 3.18562742084647e-010
outer loop
vertex 44.1673048117079 10.0340173077812 3.99999999628987
vertex 44.1673048117467 9.03401730778115 3.99999999565746
vertex 44.1673048132548 9.03401732715961 1.00000000763783
endloop
endfacet
facet normal -4.09206169943242e-008 0.999999999999999 -4.18545481118549e-009
outer loop
vertex 24.1673048067603 5.83401739589971 3.99999999413648
vertex 25.125561280561 5.83401742255579 0.99999999528847
vertex 24.1673048082602 5.83401738334334 0.99999999413648
endloop
endfacet
facet normal -4.09206169943242e-008 0.999999999999999 -4.18545481118549e-009
outer loop
vertex 25.125561280561 5.83401742255579 0.99999999528847
vertex 24.1673048067603 5.83401739589971 3.99999999413648
vertex 25.1255612790611 5.83401743511215 3.99999999528847
endloop
endfacet
facet normal -0.939692618480017 0.342020149661054 -1.90134627538395e-009
outer loop
vertex 25.1255612790611 5.83401743511215 3.99999999528847
vertex 25.5623255582089 7.03401738784486 0.999999998455769
vertex 25.125561280561 5.83401742255579 0.99999999528847
endloop
endfacet
facet normal -0.939692618480017 0.342020149661054 -1.90134627538395e-009
outer loop
vertex 25.5623255582089 7.03401738784486 0.999999998455769
vertex 25.1255612790611 5.83401743511215 3.99999999528847
vertex 25.5623255567089 7.03401740040123 3.99999999845577
endloop
endfacet
facet normal 1.88158794715672e-010 6.32408230084524e-010 -1.0
outer loop
vertex 24.1673048073949 10.0340173148214 6.44439005642754e-009
vertex 44.1673048123635 4.10836487367802 7.63783063834714e-009
vertex 24.167304807201 4.10836487367649 0.0
endloop
endfacet
facet normal 1.88158794715672e-010 6.32408230084524e-010 -1.0
outer loop
vertex 44.1673048123635 4.10836487367802 7.63783063834714e-009
vertex 24.1673048073949 10.0340173148214 6.44439005642754e-009
vertex 44.1673048125574 10.0340173109432 8.27023857773301e-009
endloop
endfacet
facet normal -3.22685764304351e-009 1.0 -4.18545479233901e-009
outer loop
vertex 25.5623255567089 7.03401740040123 3.99999999845577
vertex 27.7722840505669 7.03401739497609 1.00000000517434
vertex 25.5623255582089 7.03401738784486 0.999999998455769
endloop
endfacet
facet normal -3.22685764304351e-009 1.0 -4.18545479233901e-009
outer loop
vertex 27.7722840505669 7.03401739497609 1.00000000517434
vertex 25.5623255567089 7.03401740040123 3.99999999845577
vertex 27.7722840490669 7.03401740753245 4.00000000517434
endloop
endfacet
facet normal 0.939692619682243 0.342020146357964 -9.61673458037109e-010
outer loop
vertex 27.7722840505669 7.03401739497609 1.00000000517434
vertex 28.2090483340586 5.83401740894189 4.00000000643172
vertex 28.2090483355586 5.83401739638553 1.00000000643172
endloop
endfacet
facet normal 0.939692619682243 0.342020146357964 -9.61673458037109e-010
outer loop
vertex 28.2090483340586 5.83401740894189 4.00000000643172
vertex 27.7722840505669 7.03401739497609 1.00000000517434
vertex 27.7722840490669 7.03401740753245 4.00000000517434
endloop
endfacet
facet normal -2.20736981118618e-008 1.0 -4.18545480176223e-009
outer loop
vertex 28.2090483355586 5.83401739638553 1.00000000643172
vertex 30.1255612816424 5.83401745124642 3.99999996485537
vertex 30.1255612831424 5.83401743869006 0.999999964855369
endloop
endfacet
facet normal -2.20736981118618e-008 1.0 -4.18545480176223e-009
outer loop
vertex 30.1255612816424 5.83401745124642 3.99999996485537
vertex 28.2090483355586 5.83401739638553 1.00000000643172
vertex 28.2090483340586 5.83401740894189 4.00000000643172
endloop
endfacet
facet normal -1.0 1.11266184362788e-015 -1.88157792043785e-010
outer loop
vertex 24.1673048067603 5.83401739589971 3.99999999413648
vertex 24.167304807201 4.10836487367649 0.0
vertex 24.1673048067603 4.108364866329 4.00000000177416
endloop
endfacet
facet normal -1.0 1.11266184362788e-015 -1.88157792043785e-010
outer loop
vertex 24.167304807201 4.10836487367649 0.0
vertex 24.1673048067603 5.83401739589971 3.99999999413648
vertex 24.1673048082602 5.83401738334334 0.99999999413648
endloop
endfacet
facet normal -1.0 1.11266184362788e-015 -1.88157792043785e-010
outer loop
vertex 24.1673048065455 10.0340173116594 3.99999999446402
vertex 24.1673048080535 9.03401733103781 1.00000000581198
vertex 24.1673048065455 9.03401731165935 3.99999999383161
endloop
endfacet
facet normal -1.0 1.11266184362788e-015 -1.88157792043785e-010
outer loop
vertex 24.1673048082602 5.83401738334334 0.99999999413648
vertex 24.1673048073949 10.0340173148214 6.44439005642754e-009
vertex 24.167304807201 4.10836487367649 0.0
endloop
endfacet
facet normal -1.0 1.11266184362788e-015 -1.88157792043785e-010
outer loop
vertex 24.1673048073949 10.0340173148214 6.44439005642754e-009
vertex 24.1673048082602 5.83401738334334 0.99999999413648
vertex 24.1673048080535 9.03401733103781 1.00000000581198
endloop
endfacet
facet normal -1.0 1.11266184362788e-015 -1.88157792043785e-010
outer loop
vertex 24.1673048073949 10.0340173148214 6.44439005642754e-009
vertex 24.1673048080535 9.03401733103781 1.00000000581198
vertex 24.1673048065455 10.0340173116594 3.99999999446402
endloop
endfacet
facet normal -1.93909919182309e-010 -1.0 -1.94726651212559e-020
outer loop
vertex 44.1673048132548 9.03401732715961 1.00000000763783
vertex 24.1673048065455 9.03401731165935 3.99999999383161
vertex 24.1673048080535 9.03401733103781 1.00000000581198
endloop
endfacet
facet normal -1.93909919182309e-010 -1.0 -1.94726651212559e-020
outer loop
vertex 24.1673048065455 9.03401731165935 3.99999999383161
vertex 44.1673048132548 9.03401732715961 1.00000000763783
vertex 44.1673048117467 9.03401730778115 3.99999999565746
endloop
endfacet
facet normal -0.939692618480054 0.342020149660952 -1.90134627538355e-009
outer loop
vertex 30.1255612816424 5.83401745124642 3.99999996485537
vertex 30.56232556079 7.03401740397904 0.999999968048775
vertex 30.1255612831424 5.83401743869006 0.999999964855369
endloop
endfacet
facet normal -0.939692618480054 0.342020149660952 -1.90134627538355e-009
outer loop
vertex 30.56232556079 7.03401740397904 0.999999968048775
vertex 30.1255612816424 5.83401745124642 3.99999996485537
vertex 30.5623255592901 7.03401741653541 3.99999996804878
endloop
endfacet
facet normal -3.2268576430342e-009 1.0 -4.18545479233901e-009
outer loop
vertex 30.5623255592901 7.03401741653541 3.99999996804878
vertex 32.7722840531481 7.03401741111026 0.999999974772202
vertex 30.56232556079 7.03401740397904 0.999999968048775
endloop
endfacet
facet normal -3.2268576430342e-009 1.0 -4.18545479233901e-009
outer loop
vertex 32.7722840531481 7.03401741111026 0.999999974772202
vertex 30.5623255592901 7.03401741653541 3.99999996804878
vertex 32.7722840516481 7.03401742366663 3.9999999747722
endloop
endfacet
facet normal 0.939692619682229 0.342020146358003 -9.61673458037282e-010
outer loop
vertex 32.7722840531481 7.03401741111026 0.999999974772202
vertex 33.2090483366399 5.83401742507598 3.99999997600541
vertex 33.2090483381399 5.83401741251962 0.999999976005407
endloop
endfacet
facet normal 0.939692619682229 0.342020146358003 -9.61673458037282e-010
outer loop
vertex 33.2090483366399 5.83401742507598 3.99999997600541
vertex 32.7722840531481 7.03401741111026 0.999999974772202
vertex 32.7722840516481 7.03401742366663 3.9999999747722
endloop
endfacet
endsolid Orca_manu x-carriage v03
